<?xml version="1.0" encoding="utf-8"?>
<!-- Generator: Adobe Illustrator 16.0.0, SVG Export Plug-In . SVG Version: 6.00 Build 0)  -->
<!DOCTYPE svg PUBLIC "-//W3C//DTD SVG 1.1//EN" "http://www.w3.org/Graphics/SVG/1.1/DTD/svg11.dtd">
<svg version="1.1" id="Layer_1" xmlns="http://www.w3.org/2000/svg" xmlns:xlink="http://www.w3.org/1999/xlink" x="0px" y="0px"
	 width="175px" height="175px" viewBox="0 0 175 175" enable-background="new 0 0 175 175" xml:space="preserve">
<g>
	<path d="M83.283,90.717c-6.989,1.244-12.356,4.846-16.295,10.867c-4.887-6.157-11.186-9.465-18.969-9.359
		c-7.811,0.106-14.003,3.633-18.735,10.012c0.404-23.275,20.015-51.459,54.09-53.533c0-1.2-0.012-2.417,0.003-3.633
		c0.02-1.557,0.855-2.375,2.39-2.371c1.529,0.004,2.338,0.811,2.363,2.389c0.019,1.177,0.003,2.355,0.003,3.608
		c15.704,1.001,28.963,7.057,39.563,18.59c8.699,9.468,13.664,21.089,14.666,34.014c-4.602-6.567-10.553-10.379-18.348-10.797
		c-7.839-0.421-14.224,2.669-19.365,8.579c-4.357-5.034-9.715-7.963-16.407-8.563c-0.042,0.474-0.104,0.851-0.104,1.228
		c-0.005,15.392-0.135,30.78,0.075,46.169c0.063,4.672-0.958,8.702-4.078,12.109c-4.17,4.553-9.394,5.97-15.257,4.293
		c-5.962-1.705-9.616-5.811-11.015-11.866c-0.188-0.813-0.271-1.662-0.3-2.498c-0.062-1.823,0.814-2.856,2.396-2.933
		c1.551-0.072,2.536,0.905,2.691,2.674c0.418,4.767,3.274,8.49,7.458,9.726c6.288,1.854,12.712-2.683,13.221-9.34
		c0.019-0.246,0.037-0.493,0.037-0.741c0.005-15.982,0.009-31.967,0.008-47.949C83.376,91.198,83.324,91.005,83.283,90.717z
		 M109.423,59.488c-2.975,3.024-6.729,4.813-10.327,6.868c-2.469,1.409-4.957,2.921-7.063,4.804
		c-3.254,2.91-3.911,7.19-2.164,10.979c1.771,3.844,5.479,5.927,9.896,5.563c3.813-0.314,7.33-3.176,8.209-7.26
		c0.573-2.667,0.59-5.476,0.644-8.226C108.7,67.984,108.152,63.722,109.423,59.488z"/>
	<path d="M114.005,14.017c-2,5.517-0.769,11.281-0.987,16.973c-0.142,3.708-0.94,7.162-4.047,9.64
		c-3.789,3.022-9.367,2.745-12.892-0.649c-3.435-3.308-4.05-9.005-1.019-12.698c1.498-1.826,3.517-3.308,5.514-4.621
		c2.469-1.623,5.23-2.798,7.732-4.375C110.296,17.036,112.088,15.471,114.005,14.017z"/>
	<path d="M147.716,32.289c-1.604,4.896-0.937,9.802-0.938,14.681c-0.002,2.396-0.19,4.862-0.786,7.171
		c-1.037,4.024-4.384,6.638-8.488,6.94c-4.132,0.304-7.315-1.39-9.358-5.004c-1.992-3.52-1.611-7.812,1.082-10.939
		c1.144-1.327,2.629-2.376,4.041-3.444c0.9-0.68,1.933-1.195,2.936-1.727C140.301,37.791,144.521,35.804,147.716,32.289z"/>
</g>
<g>
	<path d="M360.385,137.631c-0.741,0.998-1.719,1.335-2.969,1.328c-5.167-0.053-10.332-0.049-15.496-0.005
		c-0.96,0.011-1.414-0.285-1.588-1.215c-0.721-3.858-2.68-7.05-5.629-9.538c-4.585-3.871-9.856-5.446-15.786-3.871
		c-7.086,1.884-11.471,6.477-13.187,13.592c-0.189,0.787-0.539,1.032-1.34,1.03c-11.07-0.024-22.141-0.022-33.209-0.009
		c-0.703,0-1.158-0.116-1.304-0.91c-0.659-3.67-2.438-6.734-5.112-9.305c-0.111-0.108-0.189-0.25-0.466-0.623
		c0.683,0,1.146,0,1.611,0c10.045,0,20.09,0,30.134-0.004c1.625,0,1.625-0.002,1.628-1.597c0-19.887-0.003-39.771,0.001-59.654
		c0-2.648,0.942-4.182,2.997-4.796c0.576-0.172,1.209-0.209,1.819-0.211c6.518-0.014,13.037-0.019,19.556-0.007
		c6.646,0.012,11.676,2.943,15.332,8.433c3.927,5.896,7.857,11.786,11.887,17.61c2.433,3.526,3.69,7.345,3.676,11.625
		c-0.028,9.017,0.019,18.04-0.037,27.058c-0.009,1.266,0.355,1.69,1.595,1.561c0.89-0.094,1.806,0.031,2.703-0.029
		c1.329-0.088,2.408,0.303,3.184,1.422C360.385,132.216,360.385,134.924,360.385,137.631z M323.108,92.876
		c4.384,0,8.771,0.056,13.153-0.053c0.772-0.019,1.867-0.546,2.194-1.167c0.33-0.617,0.158-1.834-0.269-2.465
		c-3.243-4.772-6.614-9.454-9.913-14.184c-0.729-1.04-1.647-1.502-2.902-1.494c-5.002,0.022-10.002,0.001-15,0.016
		c-2.146,0.007-2.883,0.747-2.888,2.893c-0.012,4.507-0.01,9.016-0.002,13.522c0.003,2.225,0.719,2.927,2.965,2.933
		C314.67,92.884,318.888,92.878,323.108,92.876z"/>
	<path d="M206.385,129.514c0.719-1.012,1.676-1.426,2.934-1.423c10.031,0.027,20.064,0.015,30.097,0.019
		c0.354,0,0.709,0.053,1.065,0.076c-1.231,1.698-2.6,3.231-3.549,4.989c-0.94,1.743-1.459,3.712-2.229,5.761
		c-0.226,0-0.626,0-1.026,0c-8.066,0-16.133-0.023-24.199,0.02c-1.283,0.007-2.319-0.275-3.092-1.323
		C206.385,134.924,206.385,132.216,206.385,129.514z"/>
	<path d="M249.301,121.617c-12.873,0-25.744,0-38.617,0c-2.646,0-3.276-0.624-3.276-3.241c-0.001-20.868-0.005-41.733-0.001-62.602
		c0-4.902,2.51-7.392,7.443-7.394c22.998-0.002,45.998-0.002,68.996,0.002c5.141,0,7.627,2.497,7.627,7.625
		c-0.002,20.744,0,41.489-0.002,62.231c0,2.746-0.642,3.379-3.431,3.379C275.128,121.617,262.215,121.617,249.301,121.617z
		 M249.609,96.988c0,2.603,0.008,5.012-0.004,7.423c-0.004,1.192,0.498,2.084,1.594,2.528c1.119,0.455,2.166,0.256,3.047-0.625
		c6.023-6.022,12.061-12.035,18.063-18.078c1.313-1.322,1.313-2.819,0.006-4.133c-5.975-6.017-11.989-11.992-17.974-18
		c-0.923-0.926-1.991-1.179-3.14-0.722c-1.196,0.477-1.628,1.507-1.605,2.779c0.03,1.926-0.057,3.854,0.028,5.776
		c0.05,1.116-0.271,1.475-1.424,1.464c-6.394-0.054-12.784-0.034-19.179-0.022c-2.392,0.004-3.439,1.069-3.443,3.464
		c-0.008,4.753-0.004,9.508-0.002,14.262c0.002,2.905,0.988,3.885,3.928,3.885c6.188,0.002,12.376,0,18.563,0
		C248.512,96.988,248.958,96.988,249.609,96.988z"/>
	<path d="M265.953,141.752c-0.143,7.432-6.036,13.364-13.596,13.239c-7.801-0.134-13.367-6.293-13.23-13.589
		c0.145-7.777,6.197-13.325,13.582-13.241C260.214,128.25,266.102,134.406,265.953,141.752z M252.59,134.866
		c-3.699-0.017-6.764,2.983-6.801,6.657c-0.041,3.656,3.014,6.752,6.682,6.783c3.717,0.032,6.73-2.928,6.783-6.664
		C259.309,137.941,256.297,134.882,252.59,134.866z"/>
	<path d="M336.491,141.75c-0.17,7.668-6.229,13.301-13.493,13.25c-7.584-0.061-13.523-6.268-13.33-13.654
		c0.198-7.617,6.273-13.297,13.552-13.185C330.773,128.279,336.683,134.434,336.491,141.75z M323.144,148.305
		c3.682-0.029,6.728-3.123,6.684-6.794c-0.043-3.678-3.126-6.677-6.828-6.638c-3.696,0.034-6.699,3.092-6.669,6.788
		C316.357,145.337,319.433,148.335,323.144,148.305z"/>
</g>
<g>
	<path d="M487.449,37.615h-2.758c-1.476,0-2.668-1.195-2.668-2.668v-0.09c0-3.422-2.773-6.195-6.195-6.195h-0.144
		c-3.422,0-6.194,2.773-6.194,6.195v0.09c0,1.473-1.195,2.668-2.668,2.668h-2.758c-2.938,0-5.316,2.381-5.316,5.317v0.106
		c0,2.938,2.379,5.318,5.316,5.318h23.385c2.938,0,5.317-2.381,5.317-5.318v-0.106C492.768,39.996,490.387,37.615,487.449,37.615z
		 M475.756,37.615c-1.483,0-2.684-1.203-2.684-2.686c0-1.484,1.201-2.688,2.684-2.688c1.484,0,2.688,1.203,2.688,2.688
		C478.443,36.412,477.24,37.615,475.756,37.615z M487.715,141.467h-45.084c-3.955,0-7.162-3.207-7.162-7.162V48.357
		c0-3.955,3.207-7.162,5.371-7.162h14.512c-0.12,0.595-0.186,1.211-0.186,1.844c0,4.908,3.992,8.9,8.9,8.9h23.383
		c4.908,0,8.897-3.992,8.897-9.007c0-0.595-0.063-1.175-0.176-1.737h10.918c5.748,0,8.953,3.207,8.953,7.162v53.809
		c-0.594-0.038-1.186-0.091-1.789-0.091c-2.477,0-4.867,0.348-7.164,0.942V60.891h-62.668v71.623h41.273
		C485.891,135.662,486.578,138.674,487.715,141.467z M514.254,107.445c-12.854,0-23.274,10.423-23.274,23.277
		c0,12.855,10.419,23.277,23.274,23.277c12.856,0,23.277-10.421,23.277-23.275C537.531,117.869,527.107,107.445,514.254,107.445z
		 M529.465,125.941l-14.326,16.113c-0.705,0.795-1.688,1.202-2.678,1.202c-0.785,0-1.576-0.258-2.236-0.784l-8.952-7.162
		c-1.543-1.234-1.793-3.487-0.558-5.035c1.234-1.545,3.488-1.793,5.033-0.558l6.297,5.038l12.064-13.574
		c1.313-1.478,3.578-1.611,5.057-0.298C530.646,122.198,530.777,124.463,529.465,125.941z M498.139,91.332h-46.555
		c-0.99,0-1.789-0.803-1.789-1.79v-1.791c0-0.988,0.799-1.789,1.789-1.789h46.555c0.988,0,1.789,0.801,1.789,1.789v1.791
		C499.928,90.529,499.127,91.332,498.139,91.332z M498.139,75.217h-46.555c-0.99,0-1.789-0.803-1.789-1.791v-1.791
		c0-0.988,0.799-1.791,1.789-1.791h46.555c0.988,0,1.789,0.803,1.789,1.791v1.791C499.928,74.414,499.127,75.217,498.139,75.217z
		 M489.186,105.656h-37.602c-0.99,0-1.789-0.803-1.789-1.791v-1.79c0-0.989,0.799-1.79,1.789-1.79h37.602
		c0.99,0,1.793,0.801,1.793,1.79v1.79C490.979,104.854,490.176,105.656,489.186,105.656z M485.605,121.771h-34.021
		c-0.99,0-1.789-0.804-1.789-1.791v-1.791c0-0.988,0.799-1.791,1.789-1.791h34.021c0.987,0,1.788,0.803,1.788,1.791v1.791
		C487.395,120.969,486.594,121.771,485.605,121.771z"/>
</g>
</svg>
