<?xml version="1.0" encoding="utf-8"?>
<!-- Generator: Adobe Illustrator 16.0.0, SVG Export Plug-In . SVG Version: 6.00 Build 0)  -->
<!DOCTYPE svg PUBLIC "-//W3C//DTD SVG 1.1//EN" "http://www.w3.org/Graphics/SVG/1.1/DTD/svg11.dtd">
<svg version="1.1" id="Layer_1" xmlns="http://www.w3.org/2000/svg" xmlns:xlink="http://www.w3.org/1999/xlink" x="0px" y="0px"
	 width="175px" height="175px" viewBox="0 0 175 175" enable-background="new 0 0 175 175" xml:space="preserve">
<g>
	<path d="M-111.717,90.717c-6.989,1.244-12.356,4.846-16.295,10.867c-4.887-6.157-11.186-9.465-18.969-9.359
		c-7.811,0.106-14.003,3.633-18.735,10.012c0.404-23.275,20.015-51.459,54.09-53.533c0-1.2-0.012-2.417,0.003-3.633
		c0.02-1.557,0.855-2.375,2.39-2.371c1.529,0.004,2.339,0.811,2.363,2.389c0.018,1.177,0.003,2.355,0.003,3.608
		c15.704,1.001,28.962,7.057,39.562,18.59c8.7,9.468,13.664,21.089,14.667,34.014c-4.602-6.567-10.553-10.379-18.349-10.797
		c-7.838-0.421-14.223,2.669-19.365,8.579c-4.357-5.034-9.714-7.963-16.407-8.563c-0.042,0.474-0.104,0.851-0.104,1.228
		c-0.005,15.392-0.135,30.78,0.075,46.169c0.063,4.672-0.958,8.702-4.078,12.109c-4.17,4.553-9.394,5.97-15.257,4.293
		c-5.962-1.705-9.616-5.811-11.015-11.866c-0.188-0.813-0.271-1.662-0.3-2.498c-0.062-1.823,0.814-2.856,2.396-2.933
		c1.551-0.072,2.536,0.905,2.691,2.674c0.418,4.767,3.274,8.49,7.458,9.726c6.288,1.854,12.712-2.683,13.221-9.34
		c0.019-0.246,0.037-0.493,0.037-0.741c0.005-15.982,0.009-31.967,0.008-47.949C-111.624,91.198-111.676,91.005-111.717,90.717z
		 M-85.577,59.488c-2.975,3.024-6.729,4.813-10.328,6.868c-2.468,1.409-4.956,2.921-7.062,4.804
		c-3.254,2.91-3.911,7.19-2.164,10.979c1.772,3.844,5.479,5.927,9.896,5.563c3.814-0.314,7.331-3.176,8.209-7.26
		c0.574-2.667,0.591-5.476,0.644-8.226C-86.3,67.984-86.848,63.722-85.577,59.488z"/>
	<path d="M-80.995,14.017c-2,5.517-0.768,11.281-0.987,16.973c-0.142,3.708-0.941,7.162-4.048,9.64
		c-3.788,3.022-9.367,2.745-12.891-0.649c-3.435-3.308-4.05-9.005-1.019-12.698c1.498-1.826,3.517-3.308,5.514-4.621
		c2.469-1.623,5.23-2.798,7.733-4.375C-84.704,17.036-82.912,15.471-80.995,14.017z"/>
	<path d="M-47.284,32.289c-1.604,4.896-0.937,9.802-0.938,14.681c-0.002,2.396-0.191,4.862-0.787,7.171
		c-1.037,4.024-4.384,6.638-8.488,6.94c-4.132,0.304-7.315-1.39-9.359-5.004c-1.991-3.52-1.611-7.812,1.083-10.939
		c1.143-1.327,2.629-2.376,4.041-3.444c0.9-0.68,1.932-1.195,2.935-1.727C-54.699,37.791-50.479,35.804-47.284,32.289z"/>
</g>
<g>
	<path d="M165.385,137.631c-0.74,0.998-1.719,1.335-2.969,1.328c-5.167-0.053-10.332-0.049-15.496-0.005
		c-0.96,0.011-1.414-0.285-1.588-1.215c-0.721-3.858-2.68-7.05-5.629-9.538c-4.585-3.871-9.855-5.446-15.786-3.871
		c-7.086,1.884-11.472,6.477-13.187,13.592c-0.189,0.787-0.539,1.032-1.34,1.03c-11.07-0.024-22.141-0.022-33.209-0.009
		c-0.702,0-1.158-0.116-1.303-0.91c-0.659-3.67-2.439-6.734-5.113-9.305c-0.111-0.108-0.189-0.25-0.465-0.623
		c0.682,0,1.146,0,1.611,0c10.045,0,20.09,0,30.134-0.004c1.625,0,1.625-0.002,1.628-1.597c0-19.887-0.003-39.771,0.001-59.654
		c0-2.648,0.942-4.182,2.997-4.796c0.576-0.172,1.209-0.209,1.819-0.211c6.518-0.014,13.037-0.019,19.556-0.007
		c6.646,0.012,11.677,2.943,15.332,8.433c3.927,5.896,7.856,11.786,11.888,17.61c2.432,3.526,3.689,7.345,3.674,11.625
		c-0.027,9.017,0.02,18.04-0.037,27.058c-0.008,1.266,0.356,1.69,1.596,1.561c0.891-0.094,1.807,0.031,2.703-0.029
		c1.328-0.088,2.408,0.303,3.184,1.422C165.385,132.216,165.385,134.924,165.385,137.631z M128.107,92.876
		c4.385,0,8.772,0.056,13.154-0.053c0.772-0.019,1.867-0.546,2.194-1.167c0.33-0.617,0.158-1.834-0.269-2.465
		c-3.244-4.772-6.614-9.454-9.914-14.184c-0.728-1.04-1.646-1.502-2.901-1.494c-5.002,0.022-10.002,0.001-15,0.016
		c-2.146,0.007-2.884,0.747-2.888,2.893c-0.012,4.507-0.01,9.016-0.002,13.522c0.002,2.225,0.719,2.927,2.965,2.933
		C119.67,92.884,123.889,92.878,128.107,92.876z"/>
	<path d="M11.385,129.514c0.719-1.012,1.676-1.426,2.934-1.423c10.031,0.027,20.064,0.015,30.096,0.019
		c0.355,0,0.709,0.053,1.066,0.076c-1.232,1.698-2.6,3.231-3.55,4.989c-0.94,1.743-1.458,3.712-2.229,5.761
		c-0.226,0-0.626,0-1.026,0c-8.066,0-16.133-0.023-24.199,0.02c-1.284,0.007-2.32-0.275-3.092-1.323
		C11.385,134.924,11.385,132.216,11.385,129.514z"/>
	<path d="M54.301,121.617c-12.873,0-25.745,0-38.617,0c-2.646,0-3.277-0.624-3.277-3.241c-0.001-20.868-0.005-41.733-0.001-62.602
		c0-4.902,2.51-7.392,7.444-7.394c22.998-0.002,45.998-0.002,68.996,0.002c5.141,0,7.627,2.497,7.627,7.625
		c-0.002,20.744,0,41.489-0.002,62.231c0,2.746-0.642,3.379-3.431,3.379C80.128,121.617,67.215,121.617,54.301,121.617z
		 M54.61,96.988c0,2.603,0.007,5.012-0.005,7.423c-0.004,1.192,0.498,2.084,1.594,2.528c1.119,0.455,2.166,0.256,3.047-0.625
		c6.023-6.022,12.061-12.035,18.063-18.078c1.313-1.322,1.313-2.819,0.006-4.133c-5.975-6.017-11.99-11.992-17.974-18
		c-0.923-0.926-1.991-1.179-3.14-0.722c-1.196,0.477-1.628,1.507-1.605,2.779c0.03,1.926-0.057,3.854,0.028,5.776
		c0.05,1.116-0.271,1.475-1.424,1.464c-6.394-0.054-12.784-0.034-19.179-0.022c-2.391,0.004-3.439,1.069-3.443,3.464
		c-0.008,4.753-0.004,9.508-0.002,14.262c0.002,2.905,0.989,3.885,3.928,3.885c6.188,0.002,12.376,0,18.563,0
		C53.512,96.988,53.958,96.988,54.61,96.988z"/>
	<path d="M70.953,141.752c-0.143,7.432-6.036,13.364-13.595,13.239c-7.802-0.134-13.368-6.293-13.231-13.589
		c0.144-7.777,6.197-13.325,13.582-13.241C65.214,128.25,71.102,134.406,70.953,141.752z M57.59,134.866
		c-3.7-0.017-6.764,2.983-6.801,6.657c-0.041,3.656,3.014,6.752,6.682,6.783c3.717,0.032,6.73-2.928,6.783-6.664
		C64.308,137.941,61.297,134.882,57.59,134.866z"/>
	<path d="M141.491,141.75c-0.171,7.668-6.229,13.301-13.493,13.25c-7.584-0.061-13.523-6.268-13.33-13.654
		c0.198-7.617,6.273-13.297,13.553-13.185C135.773,128.279,141.684,134.434,141.491,141.75z M128.145,148.305
		c3.681-0.029,6.727-3.123,6.683-6.794c-0.043-3.678-3.126-6.677-6.828-6.638c-3.696,0.034-6.699,3.092-6.669,6.788
		C121.357,145.337,124.434,148.335,128.145,148.305z"/>
</g>
<g>
	<path d="M292.449,37.615h-2.758c-1.476,0-2.668-1.195-2.668-2.668v-0.09c0-3.422-2.773-6.195-6.195-6.195h-0.143
		c-3.422,0-6.195,2.773-6.195,6.195v0.09c0,1.473-1.195,2.668-2.668,2.668h-2.758c-2.938,0-5.316,2.381-5.316,5.317v0.106
		c0,2.938,2.379,5.318,5.316,5.318h23.385c2.938,0,5.318-2.381,5.318-5.318v-0.106C297.768,39.996,295.387,37.615,292.449,37.615z
		 M280.756,37.615c-1.484,0-2.684-1.203-2.684-2.686c0-1.484,1.201-2.688,2.684-2.688c1.484,0,2.688,1.203,2.688,2.688
		C283.443,36.412,282.24,37.615,280.756,37.615z M292.715,141.467h-45.084c-3.955,0-7.162-3.207-7.162-7.162V48.357
		c0-3.955,3.207-7.162,5.371-7.162h14.512c-0.121,0.595-0.186,1.211-0.186,1.844c0,4.908,3.992,8.9,8.9,8.9h23.383
		c4.908,0,8.898-3.992,8.898-9.007c0-0.595-0.064-1.175-0.177-1.737h10.918c5.748,0,8.953,3.207,8.953,7.162v53.809
		c-0.594-0.038-1.186-0.091-1.789-0.091c-2.477,0-4.867,0.348-7.164,0.942V60.891h-62.668v71.623h41.272
		C290.891,135.662,291.578,138.674,292.715,141.467z M319.254,107.445c-12.854,0-23.275,10.423-23.275,23.277
		c0,12.855,10.42,23.277,23.275,23.277c12.856,0,23.277-10.421,23.277-23.275C342.531,117.869,332.107,107.445,319.254,107.445z
		 M334.465,125.941l-14.326,16.113c-0.705,0.795-1.688,1.202-2.678,1.202c-0.785,0-1.576-0.258-2.236-0.784l-8.952-7.162
		c-1.544-1.234-1.794-3.487-0.558-5.035c1.234-1.545,3.488-1.793,5.033-0.558l6.297,5.038l12.064-13.574
		c1.313-1.478,3.577-1.611,5.057-0.298C335.645,122.198,335.777,124.463,334.465,125.941z M303.139,91.332h-46.555
		c-0.99,0-1.789-0.803-1.789-1.79v-1.791c0-0.988,0.799-1.789,1.789-1.789h46.555c0.988,0,1.789,0.801,1.789,1.789v1.791
		C304.928,90.529,304.127,91.332,303.139,91.332z M303.139,75.217h-46.555c-0.99,0-1.789-0.803-1.789-1.791v-1.791
		c0-0.988,0.799-1.791,1.789-1.791h46.555c0.988,0,1.789,0.803,1.789,1.791v1.791C304.928,74.414,304.127,75.217,303.139,75.217z
		 M294.186,105.656h-37.602c-0.99,0-1.789-0.803-1.789-1.791v-1.79c0-0.989,0.799-1.79,1.789-1.79h37.602
		c0.99,0,1.793,0.801,1.793,1.79v1.79C295.979,104.854,295.176,105.656,294.186,105.656z M290.605,121.771h-34.021
		c-0.99,0-1.789-0.804-1.789-1.791v-1.791c0-0.988,0.799-1.791,1.789-1.791h34.021c0.987,0,1.789,0.803,1.789,1.791v1.791
		C292.395,120.969,291.594,121.771,290.605,121.771z"/>
</g>
</svg>
