<?xml version="1.0" encoding="utf-8"?>
<!-- Generator: Adobe Illustrator 16.0.0, SVG Export Plug-In . SVG Version: 6.00 Build 0)  -->
<!DOCTYPE svg PUBLIC "-//W3C//DTD SVG 1.1//EN" "http://www.w3.org/Graphics/SVG/1.1/DTD/svg11.dtd">
<svg version="1.1" id="Capa_1" xmlns="http://www.w3.org/2000/svg" xmlns:xlink="http://www.w3.org/1999/xlink" x="0px" y="0px"
	 width="498.342px" height="474.491px" viewBox="56.829 67.979 498.342 474.491"
	 enable-background="new 56.829 67.979 498.342 474.491" xml:space="preserve">
<g>
	<path fill-rule="evenodd" clip-rule="evenodd" d="M555.171,425.594c0,39.625,0,79.251,0,118.876
		c-4.202-0.192-8.406-0.555-12.608-0.555c-157.827-0.028-315.653-0.024-473.481-0.024c-4.088,0-8.175,0-12.252,0
		c0-40.328,0-79.183,0-119.098c11.091,0,21.653,0,33.334,0c0-4.555,0-8.047,0-11.539c0-37.672,0.152-75.344-0.145-113.012
		c-0.051-6.575,1.976-10.554,7.449-14.301c26.781-18.334,53.237-37.139,79.835-55.738c2.44-1.705,5.078-3.13,9.497-5.829
		c0,22.971,0,43.756,0,66.209c32.288-22.586,62.922-44.015,95.387-66.725c0,23.216,0,44.053,0,66.981
		c32.488-22.74,63.274-44.291,95.984-67.185c0,45.722,0,88.729,0,131.606c11.271,0,21.528,0,32.433,0
		c6.018-77.745,11.992-154.937,17.972-232.212c18.705,0,36.368,0,54.722,0c5.281,77.892,10.517,155.129,15.809,233.204
		c12.812,0,24.377,0,36.888,0c0,23.168,0,45.415,0,68.059C543.01,424.779,549.091,425.187,555.171,425.594z M342.029,374.125
		c-25.673,0-50.133,0-74.219,0c0,23.415,0,45.95,0,68.066c25.315,0,49.789,0,74.219,0
		C342.029,419.055,342.029,396.762,342.029,374.125z M212.122,373.879c-25.294,0-49.45,0-73.966,0c0,23.147,0,45.665,0,68.411
		c25.016,0,49.427,0,73.966,0C212.122,419.232,212.122,396.92,212.122,373.879z M399.214,442.378c24.832,0,49.248,0,73.726,0
		c0-23.186,0-45.711,0-68.579c-24.811,0-48.968,0-73.726,0C399.214,396.863,399.214,419.381,399.214,442.378z"/>
	<path fill-rule="evenodd" clip-rule="evenodd" d="M344.448,91.549c25.521,15.175,44.422,5.812,63.36-12.18
		c17.154-16.3,37.582-10.781,46.811,11.923c-8.241-3.001-15.216-5.793-22.351-8.094c-18.496-5.968-22.424-4.122-31.392,13.234
		c-5.803,11.228-14.688,18.277-27.92,17.446C359.022,113.002,350.183,104.762,344.448,91.549z"/>
</g>
</svg>
