<?xml version="1.0" encoding="utf-8"?>
<!-- Generator: Adobe Illustrator 16.0.0, SVG Export Plug-In . SVG Version: 6.00 Build 0)  -->
<!DOCTYPE svg PUBLIC "-//W3C//DTD SVG 1.1//EN" "http://www.w3.org/Graphics/SVG/1.1/DTD/svg11.dtd">
<svg version="1.1" id="Layer_1" xmlns="http://www.w3.org/2000/svg" xmlns:xlink="http://www.w3.org/1999/xlink" x="0px" y="0px"
	 width="183.885px" height="50.774px" viewBox="0 0 183.885 50.774" enable-background="new 0 0 183.885 50.774"
	 xml:space="preserve">
<g>
	<g opacity="0.2">
		<g>
			<path fill="#FFFFFF" d="M19.073,1C19.073,1,0,13.657,0,29.116c0,10.533,8.539,19.077,19.073,19.077
				c10.532,0,19.072-8.543,19.072-19.077C38.145,15.266,19.073,1,19.073,1z M32.709,27.982c-1.309,1.673-2.138,2.187-2.138,2.187
				c0.214-0.558,0.566-1.637,0.117-2.069c-0.313-0.29-0.777-0.491-1.184-0.601c-0.804-0.199-1.666-0.132-2.482-0.055
				c-0.751,0.069-1.547,0.219-1.919,0.97c-0.272,0.537-0.381,1.129-0.322,1.725c0.082,0.802,0.159,1.604,0.769,2.19
				c0.137,0.137,0.292,0.26,0.46,0.372c0.833,0.566,1.846,0.967,2.804,1.25c0.676,0.082,1.794-1.776,1.794-1.776
				c-0.052,1.114-0.442,2.242-0.442,2.242c0,0.296,0.083,0.631,0.324,0.985c0.151,0.222-0.103,0.522-0.32,0.663
				c-0.224,0.135-2.17,1.287-2.949,1.47c-0.783,0.19-1.034,0.272-2.035-0.371c-0.998-0.644-2.425-1.693-3.928-1.643
				c0,0-3.087,0.134-4.152,1.308c-3.221,3.533-4.448,7.802-4.448,7.802c-1.482-0.751-2.838-1.705-4.083-2.777
				c0,0-2.719-2.534-3.527-4.095c0.48,0.376,0.672,0.518,0.672,0.518c0.993,0.729,2.432,1.757,3.864,2.106
				c0.78,0.192,1.554,0.188,2.264-0.168c1.161-0.584,1.519-2.292,1.802-3.436c0.631-2.534,0.51-5.331,0.368-7.917
				c0,0,0.313,0.724,1.732,2.785c2.173,2.769,5.387,2.09,6.491,2.034c1.074,0.735,2.834,1.943,3.828,2.525
				c0.998,0.587,1.246,0.218,2.056-0.202c0.815-0.424,0.127-0.959-0.39-1.239c-0.511-0.269-2.98-1.943-3.414-2.279
				c-0.435-0.349-0.435-1.159-0.435-1.671c0-0.515,0.033-2.387,0.033-2.387c0.01-0.678-0.687-1.178-0.687-1.178
				s3.619-0.982,8.126-0.604c0.728,0.061,1.063-0.437,1.063-0.437c1.011-1.219,0.515-2.421,0.515-2.421
				c-0.249-0.959-2.743-2.316-4.286-2.548c-1.541-0.229-4.684-0.396-4.684-0.396s1.658-0.988,0.56-1.479
				c-0.474-0.209-1.598-0.595-2.882-0.741c-2.188-0.252-4.031-0.377-6.75,0.16c-2.718,0.536-2.558,0.784-2.756,1.449
				c-0.188,0.662-0.129,1.034-1.927,1.452c-4.136,0.959-8.236,4.78-8.236,4.78c1.296-2.08,6.924-6.704,6.924-6.704
				c0.245-0.194,0.781-0.568,0.925-0.892c0,0-0.335-2.134-0.554-2.416c0,0,1.762,0.094,2.957,0.546
				c1.197,0.458,1.383,0.496,1.383,0.496s3.751-0.813,7.357-0.607c3.609,0.201,6.082,1.083,7.725,1.861
				c0.329,0.149,0.561,1.134,1.085,1.407c0,0,3.31,1.438,4.897,2.812c0,0,1.284,0.813,0.73,1.814
				C34.843,25.78,33.69,28.316,32.709,27.982z"/>
		</g>
		<g>
			<path fill="#FFFFFF" d="M19.073,1C19.073,1,0,13.657,0,29.116c0,10.533,8.539,19.077,19.073,19.077
				c10.532,0,19.072-8.543,19.072-19.077C38.145,15.266,19.073,1,19.073,1z M32.709,27.982c-1.309,1.673-2.138,2.187-2.138,2.187
				c0.214-0.558,0.566-1.637,0.117-2.069c-0.313-0.29-0.777-0.491-1.184-0.601c-0.804-0.199-1.666-0.132-2.482-0.055
				c-0.751,0.069-1.547,0.219-1.919,0.97c-0.272,0.537-0.381,1.129-0.322,1.725c0.082,0.802,0.159,1.604,0.769,2.19
				c0.137,0.137,0.292,0.26,0.46,0.372c0.833,0.566,1.846,0.967,2.804,1.25c0.676,0.082,1.794-1.776,1.794-1.776
				c-0.052,1.114-0.442,2.242-0.442,2.242c0,0.296,0.083,0.631,0.324,0.985c0.151,0.222-0.103,0.522-0.32,0.663
				c-0.224,0.135-2.17,1.287-2.949,1.47c-0.783,0.19-1.034,0.272-2.035-0.371c-0.998-0.644-2.425-1.693-3.928-1.643
				c0,0-3.087,0.134-4.152,1.308c-3.221,3.533-4.448,7.802-4.448,7.802c-1.482-0.751-2.838-1.705-4.083-2.777
				c0,0-2.719-2.534-3.527-4.095c0.48,0.376,0.672,0.518,0.672,0.518c0.993,0.729,2.432,1.757,3.864,2.106
				c0.78,0.192,1.554,0.188,2.264-0.168c1.161-0.584,1.519-2.292,1.802-3.436c0.631-2.534,0.51-5.331,0.368-7.917
				c0,0,0.313,0.724,1.732,2.785c2.173,2.769,5.387,2.09,6.491,2.034c1.074,0.735,2.834,1.943,3.828,2.525
				c0.998,0.587,1.246,0.218,2.056-0.202c0.815-0.424,0.127-0.959-0.39-1.239c-0.511-0.269-2.98-1.943-3.414-2.279
				c-0.435-0.349-0.435-1.159-0.435-1.671c0-0.515,0.033-2.387,0.033-2.387c0.01-0.678-0.687-1.178-0.687-1.178
				s3.619-0.982,8.126-0.604c0.728,0.061,1.063-0.437,1.063-0.437c1.011-1.219,0.515-2.421,0.515-2.421
				c-0.249-0.959-2.743-2.316-4.286-2.548c-1.541-0.229-4.684-0.396-4.684-0.396s1.658-0.988,0.56-1.479
				c-0.474-0.209-1.598-0.595-2.882-0.741c-2.188-0.252-4.031-0.377-6.75,0.16c-2.718,0.536-2.558,0.784-2.756,1.449
				c-0.188,0.662-0.129,1.034-1.927,1.452c-4.136,0.959-8.236,4.78-8.236,4.78c1.296-2.08,6.924-6.704,6.924-6.704
				c0.245-0.194,0.781-0.568,0.925-0.892c0,0-0.335-2.134-0.554-2.416c0,0,1.762,0.094,2.957,0.546
				c1.197,0.458,1.383,0.496,1.383,0.496s3.751-0.813,7.357-0.607c3.609,0.201,6.082,1.083,7.725,1.861
				c0.329,0.149,0.561,1.134,1.085,1.407c0,0,3.31,1.438,4.897,2.812c0,0,1.284,0.813,0.73,1.814
				C34.843,25.78,33.69,28.316,32.709,27.982z"/>
		</g>
	</g>
	<g>
		<g>
			<path stroke="#000000" stroke-miterlimit="10" d="M19.073,0.611c0,0-18.399,12.209-18.399,27.123
				c0,10.161,8.237,18.403,18.399,18.403c10.16,0,18.398-8.242,18.398-18.403C37.471,14.373,19.073,0.611,19.073,0.611z
				 M32.227,26.641c-1.263,1.613-2.062,2.11-2.062,2.11c0.206-0.538,0.546-1.58,0.112-1.997c-0.302-0.279-0.75-0.474-1.143-0.579
				c-0.775-0.192-1.606-0.128-2.395-0.053c-0.725,0.066-1.492,0.21-1.851,0.936c-0.263,0.519-0.368,1.089-0.311,1.665
				c0.079,0.773,0.154,1.547,0.742,2.112c0.132,0.131,0.282,0.25,0.444,0.358c0.803,0.547,1.78,0.934,2.705,1.207
				c0.652,0.079,1.73-1.713,1.73-1.713c-0.05,1.075-0.426,2.163-0.426,2.163c0,0.286,0.08,0.609,0.313,0.95
				c0.146,0.214-0.099,0.504-0.309,0.64c-0.216,0.13-2.093,1.242-2.844,1.418c-0.755,0.184-0.998,0.263-1.963-0.357
				c-0.963-0.622-2.339-1.634-3.79-1.585c0,0-2.979,0.129-4.005,1.262c-3.107,3.408-4.291,7.527-4.291,7.527
				c-1.43-0.725-2.738-1.645-3.938-2.679c0,0-2.623-2.444-3.402-3.95c0.464,0.364,0.648,0.5,0.648,0.5
				c0.958,0.703,2.346,1.695,3.728,2.032c0.752,0.186,1.499,0.182,2.184-0.162c1.12-0.563,1.465-2.211,1.738-3.315
				c0.609-2.444,0.492-5.142,0.355-7.638c0,0,0.302,0.698,1.67,2.687c2.097,2.671,5.196,2.017,6.262,1.962
				c1.036,0.709,2.733,1.875,3.692,2.436c0.962,0.567,1.202,0.211,1.983-0.194c0.787-0.409,0.123-0.925-0.376-1.195
				c-0.493-0.259-2.875-1.875-3.293-2.199c-0.419-0.336-0.419-1.118-0.419-1.612c0-0.496,0.033-2.302,0.033-2.302
				c0.01-0.654-0.663-1.136-0.663-1.136s3.491-0.947,7.839-0.583c0.703,0.059,1.025-0.421,1.025-0.421
				c0.975-1.177,0.497-2.336,0.497-2.336c-0.24-0.925-2.646-2.234-4.134-2.458c-1.486-0.222-4.518-0.383-4.518-0.383
				s1.599-0.952,0.54-1.426c-0.457-0.202-1.541-0.574-2.78-0.715c-2.11-0.243-3.889-0.364-6.512,0.155
				c-2.622,0.517-2.467,0.757-2.658,1.397c-0.183,0.639-0.126,0.998-1.86,1.4c-3.99,0.926-7.946,4.611-7.946,4.611
				c1.251-2.006,6.68-6.467,6.68-6.467c0.236-0.187,0.753-0.548,0.892-0.861c0,0-0.323-2.059-0.535-2.33c0,0,1.7,0.09,2.854,0.527
				c1.154,0.441,1.334,0.479,1.334,0.479s3.619-0.784,7.098-0.586c3.482,0.193,5.867,1.045,7.451,1.795
				c0.317,0.145,0.542,1.095,1.048,1.357c0,0,3.193,1.388,4.724,2.713c0,0,1.239,0.784,0.705,1.75
				C34.286,24.516,33.174,26.962,32.227,26.641z"/>
		</g>
		<g>
			<path stroke="#000000" stroke-miterlimit="10" d="M19.073,0.611c0,0-18.399,12.209-18.399,27.123
				c0,10.161,8.237,18.403,18.399,18.403c10.16,0,18.398-8.242,18.398-18.403C37.471,14.373,19.073,0.611,19.073,0.611z
				 M32.227,26.641c-1.263,1.613-2.062,2.11-2.062,2.11c0.206-0.538,0.546-1.58,0.112-1.997c-0.302-0.279-0.75-0.474-1.143-0.579
				c-0.775-0.192-1.606-0.128-2.395-0.053c-0.725,0.066-1.492,0.21-1.851,0.936c-0.263,0.519-0.368,1.089-0.311,1.665
				c0.079,0.773,0.154,1.547,0.742,2.112c0.132,0.131,0.282,0.25,0.444,0.358c0.803,0.547,1.78,0.934,2.705,1.207
				c0.652,0.079,1.73-1.713,1.73-1.713c-0.05,1.075-0.426,2.163-0.426,2.163c0,0.286,0.08,0.609,0.313,0.95
				c0.146,0.214-0.099,0.504-0.309,0.64c-0.216,0.13-2.093,1.242-2.844,1.418c-0.755,0.184-0.998,0.263-1.963-0.357
				c-0.963-0.622-2.339-1.634-3.79-1.585c0,0-2.979,0.129-4.005,1.262c-3.107,3.408-4.291,7.527-4.291,7.527
				c-1.43-0.725-2.738-1.645-3.938-2.679c0,0-2.623-2.444-3.402-3.95c0.464,0.364,0.648,0.5,0.648,0.5
				c0.958,0.703,2.346,1.695,3.728,2.032c0.752,0.186,1.499,0.182,2.184-0.162c1.12-0.563,1.465-2.211,1.738-3.315
				c0.609-2.444,0.492-5.142,0.355-7.638c0,0,0.302,0.698,1.67,2.687c2.097,2.671,5.196,2.017,6.262,1.962
				c1.036,0.709,2.733,1.875,3.692,2.436c0.962,0.567,1.202,0.211,1.983-0.194c0.787-0.409,0.123-0.925-0.376-1.195
				c-0.493-0.259-2.875-1.875-3.293-2.199c-0.419-0.336-0.419-1.118-0.419-1.612c0-0.496,0.033-2.302,0.033-2.302
				c0.01-0.654-0.663-1.136-0.663-1.136s3.491-0.947,7.839-0.583c0.703,0.059,1.025-0.421,1.025-0.421
				c0.975-1.177,0.497-2.336,0.497-2.336c-0.24-0.925-2.646-2.234-4.134-2.458c-1.486-0.222-4.518-0.383-4.518-0.383
				s1.599-0.952,0.54-1.426c-0.457-0.202-1.541-0.574-2.78-0.715c-2.11-0.243-3.889-0.364-6.512,0.155
				c-2.622,0.517-2.467,0.757-2.658,1.397c-0.183,0.639-0.126,0.998-1.86,1.4c-3.99,0.926-7.946,4.611-7.946,4.611
				c1.251-2.006,6.68-6.467,6.68-6.467c0.236-0.187,0.753-0.548,0.892-0.861c0,0-0.323-2.059-0.535-2.33c0,0,1.7,0.09,2.854,0.527
				c1.154,0.441,1.334,0.479,1.334,0.479s3.619-0.784,7.098-0.586c3.482,0.193,5.867,1.045,7.451,1.795
				c0.317,0.145,0.542,1.095,1.048,1.357c0,0,3.193,1.388,4.724,2.713c0,0,1.239,0.784,0.705,1.75
				C34.286,24.516,33.174,26.962,32.227,26.641z"/>
		</g>
	</g>
	<g>
		<circle fill="#FFFFFF" cx="19.073" cy="27.746" r="17.394"/>
		<g>
			<g>
				<path d="M19.073,0.611c0,0-18.399,12.209-18.399,27.123c0,10.161,8.237,18.403,18.399,18.403
					c10.16,0,18.398-8.242,18.398-18.403C37.471,14.373,19.073,0.611,19.073,0.611z M32.227,26.641
					c-1.263,1.613-2.062,2.11-2.062,2.11c0.206-0.538,0.546-1.58,0.112-1.997c-0.302-0.279-0.75-0.474-1.143-0.579
					c-0.775-0.192-1.606-0.128-2.395-0.053c-0.725,0.066-1.492,0.21-1.851,0.936c-0.263,0.519-0.368,1.089-0.311,1.665
					c0.079,0.773,0.154,1.547,0.742,2.112c0.132,0.131,0.282,0.25,0.444,0.358c0.803,0.547,1.78,0.934,2.705,1.207
					c0.652,0.079,1.73-1.713,1.73-1.713c-0.05,1.075-0.426,2.163-0.426,2.163c0,0.286,0.081,0.609,0.313,0.95
					c0.146,0.214-0.1,0.504-0.31,0.64c-0.215,0.13-2.093,1.242-2.844,1.418c-0.755,0.184-0.998,0.263-1.963-0.357
					c-0.963-0.622-2.339-1.634-3.79-1.585c0,0-2.979,0.129-4.005,1.262c-3.107,3.408-4.291,7.527-4.291,7.527
					c-1.43-0.725-2.738-1.645-3.938-2.679c0,0-2.623-2.444-3.402-3.95c0.464,0.364,0.648,0.5,0.648,0.5
					c0.958,0.703,2.346,1.695,3.728,2.032c0.752,0.186,1.499,0.182,2.184-0.162c1.12-0.563,1.465-2.211,1.738-3.315
					c0.609-2.444,0.492-5.142,0.355-7.638c0,0,0.302,0.698,1.67,2.687c2.097,2.671,5.196,2.017,6.262,1.962
					c1.036,0.709,2.733,1.875,3.692,2.436c0.962,0.567,1.202,0.211,1.984-0.194c0.787-0.409,0.122-0.925-0.376-1.195
					c-0.493-0.259-2.875-1.875-3.294-2.199c-0.419-0.336-0.419-1.118-0.419-1.612c0-0.496,0.033-2.302,0.033-2.302
					c0.01-0.654-0.663-1.136-0.663-1.136s3.491-0.947,7.838-0.583c0.703,0.059,1.026-0.421,1.026-0.421
					c0.975-1.177,0.496-2.336,0.496-2.336c-0.24-0.925-2.645-2.234-4.133-2.458c-1.487-0.222-4.519-0.383-4.519-0.383
					s1.599-0.952,0.54-1.426c-0.457-0.202-1.541-0.574-2.78-0.715c-2.11-0.243-3.889-0.364-6.512,0.155
					c-2.622,0.517-2.467,0.757-2.658,1.397c-0.183,0.639-0.126,0.998-1.86,1.4c-3.99,0.926-7.946,4.611-7.946,4.611
					c1.251-2.006,6.68-6.467,6.68-6.467c0.236-0.187,0.753-0.548,0.892-0.861c0,0-0.323-2.059-0.535-2.33c0,0,1.7,0.09,2.854,0.527
					c1.154,0.441,1.334,0.479,1.334,0.479s3.619-0.784,7.098-0.586c3.482,0.193,5.867,1.045,7.451,1.795
					c0.317,0.145,0.542,1.095,1.048,1.357c0,0,3.192,1.388,4.724,2.713c0,0,1.238,0.784,0.705,1.75
					C34.286,24.516,33.174,26.962,32.227,26.641z"/>
			</g>
			<g>
				<path d="M19.073,0.611c0,0-18.399,12.209-18.399,27.123c0,10.161,8.237,18.403,18.399,18.403
					c10.16,0,18.398-8.242,18.398-18.403C37.471,14.373,19.073,0.611,19.073,0.611z M32.227,26.641
					c-1.263,1.613-2.062,2.11-2.062,2.11c0.206-0.538,0.546-1.58,0.112-1.997c-0.302-0.279-0.75-0.474-1.143-0.579
					c-0.775-0.192-1.606-0.128-2.395-0.053c-0.725,0.066-1.492,0.21-1.851,0.936c-0.263,0.519-0.368,1.089-0.311,1.665
					c0.079,0.773,0.154,1.547,0.742,2.112c0.132,0.131,0.282,0.25,0.444,0.358c0.803,0.547,1.78,0.934,2.705,1.207
					c0.652,0.079,1.73-1.713,1.73-1.713c-0.05,1.075-0.426,2.163-0.426,2.163c0,0.286,0.081,0.609,0.313,0.95
					c0.146,0.214-0.1,0.504-0.31,0.64c-0.215,0.13-2.093,1.242-2.844,1.418c-0.755,0.184-0.998,0.263-1.963-0.357
					c-0.963-0.622-2.339-1.634-3.79-1.585c0,0-2.979,0.129-4.005,1.262c-3.107,3.408-4.291,7.527-4.291,7.527
					c-1.43-0.725-2.738-1.645-3.938-2.679c0,0-2.623-2.444-3.402-3.95c0.464,0.364,0.648,0.5,0.648,0.5
					c0.958,0.703,2.346,1.695,3.728,2.032c0.752,0.186,1.499,0.182,2.184-0.162c1.12-0.563,1.465-2.211,1.738-3.315
					c0.609-2.444,0.492-5.142,0.355-7.638c0,0,0.302,0.698,1.67,2.687c2.097,2.671,5.196,2.017,6.262,1.962
					c1.036,0.709,2.733,1.875,3.692,2.436c0.962,0.567,1.202,0.211,1.984-0.194c0.787-0.409,0.122-0.925-0.376-1.195
					c-0.493-0.259-2.875-1.875-3.294-2.199c-0.419-0.336-0.419-1.118-0.419-1.612c0-0.496,0.033-2.302,0.033-2.302
					c0.01-0.654-0.663-1.136-0.663-1.136s3.491-0.947,7.838-0.583c0.703,0.059,1.026-0.421,1.026-0.421
					c0.975-1.177,0.496-2.336,0.496-2.336c-0.24-0.925-2.645-2.234-4.133-2.458c-1.487-0.222-4.519-0.383-4.519-0.383
					s1.599-0.952,0.54-1.426c-0.457-0.202-1.541-0.574-2.78-0.715c-2.11-0.243-3.889-0.364-6.512,0.155
					c-2.622,0.517-2.467,0.757-2.658,1.397c-0.183,0.639-0.126,0.998-1.86,1.4c-3.99,0.926-7.946,4.611-7.946,4.611
					c1.251-2.006,6.68-6.467,6.68-6.467c0.236-0.187,0.753-0.548,0.892-0.861c0,0-0.323-2.059-0.535-2.33c0,0,1.7,0.09,2.854,0.527
					c1.154,0.441,1.334,0.479,1.334,0.479s3.619-0.784,7.098-0.586c3.482,0.193,5.867,1.045,7.451,1.795
					c0.317,0.145,0.542,1.095,1.048,1.357c0,0,3.192,1.388,4.724,2.713c0,0,1.238,0.784,0.705,1.75
					C34.286,24.516,33.174,26.962,32.227,26.641z"/>
			</g>
		</g>
		<g>
			<path fill="#FFFFFF" d="M49.112,29.84C47.419,28.321,47,26.331,47,24.672c0-1.169,0.401-3.212,1.956-4.766
				c1.047-1.047,2.636-1.868,5.325-1.868c0.698,0,1.676,0.052,2.532,0.209c0.663,0.122,1.222,0.227,1.78,0.262
				c0.192,0.018,0.227,0.087,0.227,0.192c0,0.14-0.052,0.349-0.087,0.977c-0.035,0.577-0.035,1.537-0.052,1.798
				s-0.052,0.367-0.157,0.367c-0.122,0-0.14-0.122-0.14-0.367c0-0.681-0.279-1.396-0.733-1.781
				c-0.611-0.523-1.955-0.995-3.491-0.995c-2.322,0-3.405,0.68-4.016,1.274c-1.274,1.223-1.571,2.776-1.571,4.557
				c0,3.335,2.566,6.39,6.303,6.39c1.309,0,2.339-0.157,3.038-0.873c0.366-0.384,0.593-1.152,0.646-1.467
				c0.035-0.191,0.07-0.262,0.174-0.262c0.087,0,0.123,0.122,0.123,0.262c0,0.122-0.21,1.641-0.384,2.234
				c-0.105,0.332-0.14,0.367-0.454,0.507c-0.698,0.279-2.025,0.401-3.142,0.401C52.254,31.726,50.491,31.08,49.112,29.84z"/>
			<path fill="#FFFFFF" d="M67.751,18.039c3.928,0,6.861,2.479,6.861,6.547c0,3.911-2.759,7.14-6.966,7.14
				c-4.783,0-6.774-3.718-6.774-6.861C60.873,22.036,62.933,18.039,67.751,18.039z M68.118,31.063c1.571,0,4.818-0.908,4.818-5.988
				c0-4.19-2.548-6.442-5.307-6.442c-2.916,0-5.098,1.92-5.098,5.743C62.531,28.443,64.976,31.063,68.118,31.063z"/>
			<path fill="#FFFFFF" d="M77.818,23.346c0-2.724,0-3.212-0.035-3.771c-0.035-0.594-0.175-0.873-0.751-0.995
				c-0.139-0.035-0.436-0.052-0.593-0.052c-0.07,0-0.14-0.035-0.14-0.105c0-0.104,0.087-0.14,0.279-0.14
				c0.786,0,1.85,0.053,2.007,0.053s1.205-0.053,1.729-0.053c0.192,0,0.279,0.035,0.279,0.14c0,0.07-0.07,0.105-0.14,0.105
				c-0.122,0-0.227,0.018-0.437,0.052c-0.472,0.07-0.611,0.384-0.646,0.995c-0.035,0.559-0.035,1.047-0.035,3.771v2.444
				c0,2.514,0.559,3.597,1.31,4.313c0.855,0.803,1.641,0.96,2.636,0.96c1.065,0,2.112-0.507,2.741-1.257
				c0.803-0.996,1.013-2.479,1.013-4.278v-2.182c0-2.724,0-3.212-0.035-3.771c-0.035-0.594-0.175-0.873-0.751-0.995
				c-0.14-0.035-0.436-0.052-0.593-0.052c-0.07,0-0.14-0.035-0.14-0.105c0-0.104,0.087-0.14,0.279-0.14
				c0.785,0,1.746,0.053,1.851,0.053c0.123,0,0.943-0.053,1.466-0.053c0.192,0,0.279,0.035,0.279,0.14c0,0.07-0.07,0.105-0.14,0.105
				c-0.122,0-0.227,0.018-0.437,0.052c-0.471,0.105-0.611,0.384-0.646,0.995c-0.035,0.559-0.035,1.047-0.035,3.771v1.868
				c0,1.885-0.209,3.98-1.606,5.22c-1.257,1.117-2.566,1.292-3.597,1.292c-0.594,0-2.356-0.07-3.596-1.24
				c-0.855-0.82-1.519-2.042-1.519-4.591V23.346z"/>
			<path fill="#FFFFFF" d="M101.607,27.029c0-1.414-0.087-1.606-0.786-1.798c-0.14-0.035-0.437-0.052-0.594-0.052
				c-0.069,0-0.139-0.035-0.139-0.104c0-0.105,0.087-0.14,0.279-0.14c0.786,0,1.886,0.053,1.973,0.053
				c0.088,0,1.188-0.053,1.711-0.053c0.192,0,0.28,0.035,0.28,0.14c0,0.07-0.07,0.104-0.14,0.104c-0.122,0-0.227,0.018-0.437,0.052
				c-0.471,0.087-0.611,0.384-0.646,0.996c-0.035,0.559-0.035,1.083-0.035,1.815v1.955c0,0.786-0.018,0.82-0.227,0.943
				c-1.117,0.594-2.688,0.786-3.701,0.786c-1.327,0-3.806-0.174-5.744-1.868c-1.064-0.925-2.077-2.793-2.077-4.975
				c0-2.793,1.361-4.766,2.916-5.744c1.571-0.978,3.299-1.1,4.644-1.1c1.1,0,2.339,0.227,2.671,0.297
				c0.367,0.087,0.978,0.157,1.415,0.174c0.175,0.018,0.209,0.087,0.209,0.157c0,0.244-0.122,0.733-0.122,2.479
				c0,0.28-0.035,0.367-0.157,0.367c-0.087,0-0.105-0.105-0.122-0.262c-0.018-0.244-0.105-0.733-0.367-1.152
				c-0.436-0.664-1.85-1.414-4.102-1.414c-1.1,0-2.41,0.104-3.736,1.152c-1.013,0.803-1.729,2.392-1.729,4.435
				c0,2.461,1.24,4.242,1.851,4.836c1.379,1.344,2.968,1.868,4.574,1.868c0.628,0,1.536-0.104,1.99-0.366
				c0.227-0.123,0.349-0.314,0.349-0.611V27.029z"/>
			<path fill="#FFFFFF" d="M110.872,18.719c0.209-0.576,0.28-0.681,0.384-0.681s0.174,0.087,0.384,0.628
				c0.262,0.664,3.003,7.874,4.068,10.527c0.628,1.554,1.135,1.833,1.501,1.938c0.262,0.088,0.524,0.105,0.698,0.105
				c0.104,0,0.174,0.018,0.174,0.104c0,0.105-0.157,0.14-0.349,0.14c-0.262,0-1.537,0-2.741-0.035
				c-0.332-0.018-0.524-0.018-0.524-0.122c0-0.07,0.053-0.104,0.123-0.123c0.104-0.035,0.209-0.192,0.104-0.471l-1.624-4.295
				c-0.035-0.069-0.07-0.104-0.157-0.104h-3.753c-0.087,0-0.14,0.052-0.174,0.14l-1.047,3.09c-0.157,0.437-0.245,0.855-0.245,1.17
				c0,0.349,0.367,0.506,0.664,0.506h0.174c0.123,0,0.174,0.035,0.174,0.104c0,0.105-0.104,0.14-0.262,0.14
				c-0.419,0-1.169-0.053-1.361-0.053c-0.192,0-1.152,0.053-1.973,0.053c-0.227,0-0.332-0.035-0.332-0.14
				c0-0.07,0.07-0.104,0.157-0.104c0.123,0,0.367-0.017,0.507-0.035c0.803-0.104,1.152-0.768,1.466-1.641L110.872,18.719z
				 M112.687,25.703c0.088,0,0.088-0.052,0.07-0.122l-1.658-4.714c-0.087-0.262-0.174-0.262-0.262,0l-1.537,4.714
				c-0.035,0.087,0,0.122,0.053,0.122H112.687z"/>
			<path fill="#FFFFFF" d="M120.574,23.346c0-2.724,0-3.212-0.036-3.771c-0.035-0.594-0.174-0.873-0.75-0.995
				c-0.14-0.035-0.437-0.052-0.594-0.052c-0.07,0-0.14-0.035-0.14-0.105c0-0.104,0.087-0.14,0.28-0.14
				c0.786,0,1.885,0.053,1.973,0.053c0.192,0,1.519-0.053,2.06-0.053c1.1,0,2.27,0.105,3.195,0.768
				c0.437,0.314,1.205,1.17,1.205,2.375c0,1.292-0.541,2.583-2.112,4.032c1.432,1.833,2.619,3.387,3.631,4.469
				c0.942,0.996,1.693,1.187,2.129,1.257c0.332,0.052,0.577,0.052,0.681,0.052c0.087,0,0.157,0.052,0.157,0.104
				c0,0.105-0.104,0.14-0.419,0.14h-1.24c-0.978,0-1.414-0.087-1.868-0.332c-0.751-0.401-1.362-1.257-2.357-2.566
				c-0.733-0.96-1.554-2.129-1.903-2.583c-0.069-0.07-0.122-0.104-0.227-0.104l-2.147-0.035c-0.087,0-0.122,0.052-0.122,0.14v0.419
				c0,1.676,0,3.055,0.087,3.789c0.052,0.506,0.157,0.89,0.68,0.96c0.245,0.035,0.629,0.07,0.786,0.07
				c0.105,0,0.14,0.052,0.14,0.104c0,0.087-0.087,0.14-0.279,0.14c-0.96,0-2.061-0.053-2.147-0.053
				c-0.018,0-1.117,0.053-1.641,0.053c-0.192,0-0.279-0.035-0.279-0.14c0-0.052,0.035-0.104,0.14-0.104
				c0.157,0,0.367-0.035,0.524-0.07c0.349-0.07,0.437-0.454,0.506-0.96c0.087-0.733,0.087-2.112,0.087-3.789V23.346z M121.97,24.864
				c0,0.088,0.035,0.157,0.122,0.21c0.262,0.157,1.065,0.279,1.833,0.279c0.419,0,0.908-0.052,1.309-0.332
				c0.611-0.419,1.065-1.361,1.065-2.688c0-2.182-1.152-3.491-3.021-3.491c-0.523,0-0.995,0.052-1.17,0.104
				c-0.087,0.035-0.139,0.104-0.139,0.21V24.864z"/>
			<path fill="#FFFFFF" d="M139.403,23.346c0-2.724,0-3.212-0.035-3.771c-0.036-0.594-0.175-0.873-0.751-0.995
				c-0.14-0.035-0.437-0.052-0.593-0.052c-0.07,0-0.14-0.035-0.14-0.105c0-0.104,0.087-0.14,0.279-0.14
				c0.786,0,1.833,0.053,1.973,0.053c0.384,0,1.396-0.053,2.2-0.053c2.182,0,2.968,0.733,3.247,0.995
				c0.384,0.367,0.873,1.152,0.873,2.078c0,2.479-1.815,4.155-4.295,4.155c-0.087,0-0.279,0-0.366-0.018
				c-0.087,0-0.192-0.035-0.192-0.122c0-0.14,0.105-0.157,0.471-0.157c1.693,0,3.021-1.24,3.021-2.846
				c0-0.576-0.053-1.746-0.978-2.689c-0.925-0.942-1.99-0.873-2.392-0.873c-0.297,0-0.594,0.035-0.751,0.104
				c-0.104,0.035-0.139,0.157-0.139,0.332v7.175c0,1.676,0,3.055,0.087,3.789c0.052,0.506,0.157,0.89,0.681,0.96
				c0.244,0.035,0.628,0.07,0.785,0.07c0.105,0,0.14,0.052,0.14,0.104c0,0.087-0.087,0.14-0.279,0.14
				c-0.96,0-2.061-0.053-2.147-0.053c-0.053,0-1.152,0.053-1.676,0.053c-0.192,0-0.28-0.035-0.28-0.14
				c0-0.052,0.035-0.104,0.14-0.104c0.157,0,0.367-0.035,0.523-0.07c0.349-0.07,0.437-0.454,0.506-0.96
				c0.087-0.733,0.087-2.112,0.087-3.789V23.346z"/>
			<path fill="#FFFFFF" d="M151.811,26.418c0,1.676,0,3.055,0.087,3.789c0.053,0.506,0.157,0.89,0.681,0.96
				c0.245,0.035,0.629,0.07,0.786,0.07c0.104,0,0.14,0.052,0.14,0.104c0,0.087-0.087,0.14-0.279,0.14
				c-0.961,0-2.06-0.053-2.147-0.053s-1.187,0.053-1.711,0.053c-0.192,0-0.279-0.035-0.279-0.14c0-0.052,0.035-0.104,0.14-0.104
				c0.157,0,0.367-0.035,0.523-0.07c0.349-0.07,0.437-0.454,0.506-0.96c0.087-0.733,0.087-2.112,0.087-3.789v-3.073
				c0-2.724,0-3.212-0.035-3.771c-0.035-0.594-0.21-0.89-0.594-0.978c-0.192-0.052-0.419-0.07-0.541-0.07
				c-0.07,0-0.14-0.035-0.14-0.105c0-0.104,0.087-0.14,0.279-0.14c0.577,0,1.676,0.053,1.764,0.053s1.187-0.053,1.71-0.053
				c0.192,0,0.28,0.035,0.28,0.14c0,0.07-0.07,0.105-0.14,0.105c-0.123,0-0.227,0.018-0.437,0.052
				c-0.471,0.087-0.61,0.384-0.646,0.995c-0.035,0.559-0.035,1.047-0.035,3.771V26.418z"/>
			<path fill="#FFFFFF" d="M158.022,23.346c0-2.724,0-3.212-0.034-3.771c-0.036-0.594-0.175-0.873-0.751-0.995
				c-0.14-0.035-0.437-0.052-0.594-0.052c-0.069,0-0.139-0.035-0.139-0.105c0-0.104,0.086-0.14,0.279-0.14
				c0.785,0,1.833,0.053,1.973,0.053c0.384,0,1.397-0.053,2.2-0.053c2.183,0,2.968,0.733,3.247,0.995
				c0.384,0.367,0.873,1.152,0.873,2.078c0,2.479-1.816,4.155-4.295,4.155c-0.088,0-0.279,0-0.367-0.018
				c-0.087,0-0.191-0.035-0.191-0.122c0-0.14,0.104-0.157,0.471-0.157c1.694,0,3.021-1.24,3.021-2.846
				c0-0.576-0.052-1.746-0.978-2.689c-0.926-0.942-1.99-0.873-2.392-0.873c-0.297,0-0.594,0.035-0.751,0.104
				c-0.104,0.035-0.14,0.157-0.14,0.332v7.175c0,1.676,0,3.055,0.088,3.789c0.052,0.506,0.157,0.89,0.681,0.96
				c0.244,0.035,0.628,0.07,0.785,0.07c0.105,0,0.14,0.052,0.14,0.104c0,0.087-0.087,0.14-0.279,0.14
				c-0.96,0-2.06-0.053-2.147-0.053c-0.052,0-1.153,0.053-1.676,0.053c-0.192,0-0.279-0.035-0.279-0.14
				c0-0.052,0.035-0.104,0.14-0.104c0.157,0,0.366-0.035,0.523-0.07c0.35-0.07,0.437-0.454,0.506-0.96
				c0.087-0.733,0.087-2.112,0.087-3.789V23.346z"/>
			<path fill="#FFFFFF" d="M168.963,23.346c0-2.724,0-3.212-0.034-3.771c-0.035-0.594-0.175-0.873-0.751-0.995
				c-0.14-0.035-0.437-0.052-0.594-0.052c-0.069,0-0.14-0.035-0.14-0.105c0-0.104,0.088-0.14,0.279-0.14
				c0.402,0,0.873,0,1.257,0.018l0.716,0.035c0.123,0,3.597,0,3.998-0.018c0.332-0.017,0.611-0.053,0.751-0.087
				c0.088-0.018,0.157-0.087,0.244-0.087c0.053,0,0.069,0.069,0.069,0.157c0,0.122-0.086,0.332-0.14,0.82
				c-0.017,0.175-0.052,0.943-0.086,1.153c-0.018,0.087-0.054,0.191-0.123,0.191c-0.104,0-0.14-0.087-0.14-0.227
				c0-0.122-0.018-0.418-0.105-0.628c-0.121-0.279-0.296-0.489-1.238-0.593c-0.297-0.035-2.2-0.052-2.393-0.052
				c-0.069,0-0.104,0.052-0.104,0.174v4.819c0,0.122,0.017,0.174,0.104,0.174c0.228,0,2.374,0,2.776-0.035
				c0.419-0.035,0.663-0.07,0.82-0.245c0.122-0.139,0.192-0.226,0.262-0.226c0.053,0,0.087,0.035,0.087,0.139
				c0,0.105-0.087,0.401-0.139,0.978c-0.035,0.349-0.07,0.995-0.07,1.117c0,0.14,0,0.332-0.122,0.332
				c-0.087,0-0.122-0.069-0.122-0.157c0-0.174,0-0.349-0.07-0.576c-0.069-0.244-0.227-0.541-0.908-0.611
				c-0.471-0.052-2.199-0.087-2.496-0.087c-0.087,0-0.121,0.053-0.121,0.123v1.536c0,0.594-0.019,2.619,0,2.985
				c0.052,1.205,0.313,1.432,2.023,1.432c0.454,0,1.223,0,1.677-0.192c0.454-0.192,0.663-0.541,0.785-1.257
				c0.035-0.192,0.07-0.262,0.157-0.262c0.105,0,0.105,0.14,0.105,0.262c0,0.14-0.14,1.327-0.228,1.693
				c-0.121,0.454-0.262,0.454-0.942,0.454c-1.31,0-2.27-0.035-2.95-0.052c-0.682-0.035-1.1-0.053-1.362-0.053
				c-0.034,0-0.331,0-0.698,0.018c-0.35,0-0.75,0.035-1.013,0.035c-0.191,0-0.279-0.035-0.279-0.14c0-0.052,0.035-0.104,0.14-0.104
				c0.157,0,0.366-0.035,0.523-0.07c0.351-0.07,0.437-0.454,0.507-0.96c0.087-0.733,0.087-2.112,0.087-3.789V23.346z"/>
		</g>
	</g>
</g>
</svg>
