<?xml version="1.0" encoding="utf-8"?>
<!-- Generator: Adobe Illustrator 16.0.0, SVG Export Plug-In . SVG Version: 6.00 Build 0)  -->
<!DOCTYPE svg PUBLIC "-//W3C//DTD SVG 1.1//EN" "http://www.w3.org/Graphics/SVG/1.1/DTD/svg11.dtd">
<svg version="1.1" id="Layer_1" xmlns="http://www.w3.org/2000/svg" xmlns:xlink="http://www.w3.org/1999/xlink" x="0px" y="0px"
	 width="36.797px" height="45.526px" viewBox="0.424 0.611 36.797 45.526" enable-background="new 0.424 0.611 36.797 45.526"
	 xml:space="preserve">
<circle fill="#231F20" cx="18.823" cy="27.746" r="17.394"/>
<g>
	<g>
		<path fill="#FFFFFF" d="M18.823,0.611c0,0-18.399,12.209-18.399,27.123c0,10.161,8.237,18.403,18.399,18.403
			c10.16,0,18.398-8.242,18.398-18.403C37.221,14.373,18.823,0.611,18.823,0.611z M31.977,26.641
			c-1.263,1.612-2.062,2.109-2.062,2.109c0.206-0.538,0.546-1.58,0.112-1.997c-0.302-0.278-0.75-0.474-1.143-0.579
			c-0.775-0.191-1.606-0.128-2.395-0.053c-0.725,0.065-1.492,0.21-1.851,0.937c-0.263,0.52-0.368,1.089-0.311,1.665
			c0.079,0.772,0.154,1.547,0.742,2.111c0.132,0.131,0.282,0.25,0.444,0.357c0.803,0.548,1.78,0.935,2.705,1.207
			c0.652,0.079,1.73-1.713,1.73-1.713c-0.05,1.074-0.426,2.163-0.426,2.163c0,0.285,0.081,0.608,0.313,0.949
			c0.146,0.215-0.1,0.504-0.31,0.641c-0.215,0.13-2.093,1.242-2.844,1.418c-0.755,0.185-0.998,0.264-1.963-0.356
			c-0.963-0.622-2.339-1.634-3.79-1.585c0,0-2.979,0.129-4.005,1.262c-3.107,3.408-4.291,7.527-4.291,7.527
			c-1.43-0.726-2.738-1.646-3.938-2.68c0,0-2.623-2.443-3.402-3.949c0.464,0.363,0.648,0.5,0.648,0.5
			c0.958,0.702,2.346,1.694,3.728,2.031c0.752,0.187,1.499,0.183,2.184-0.162c1.12-0.563,1.465-2.211,1.738-3.314
			c0.609-2.443,0.492-5.142,0.355-7.638c0,0,0.302,0.697,1.67,2.688c2.097,2.671,5.196,2.018,6.262,1.962
			c1.036,0.709,2.733,1.875,3.692,2.437c0.962,0.566,1.202,0.211,1.984-0.194c0.787-0.408,0.122-0.925-0.376-1.194
			c-0.493-0.259-2.875-1.875-3.294-2.198c-0.419-0.337-0.419-1.118-0.419-1.612c0-0.496,0.033-2.302,0.033-2.302
			c0.01-0.654-0.663-1.137-0.663-1.137s3.491-0.946,7.838-0.583c0.703,0.06,1.026-0.421,1.026-0.421
			c0.975-1.178,0.496-2.336,0.496-2.336c-0.24-0.926-2.645-2.233-4.133-2.458c-1.487-0.223-4.519-0.384-4.519-0.384
			s1.599-0.951,0.54-1.426c-0.457-0.202-1.541-0.574-2.78-0.715c-2.11-0.243-3.889-0.364-6.512,0.154
			c-2.622,0.518-2.467,0.758-2.658,1.396c-0.183,0.64-0.126,0.998-1.86,1.399c-3.99,0.927-7.946,4.611-7.946,4.611
			c1.251-2.007,6.68-6.468,6.68-6.468c0.236-0.188,0.753-0.548,0.892-0.86c0,0-0.323-2.06-0.535-2.33c0,0,1.7,0.091,2.854,0.526
			c1.154,0.441,1.334,0.479,1.334,0.479s3.619-0.783,7.098-0.586c3.482,0.192,5.867,1.046,7.451,1.796
			c0.317,0.145,0.542,1.095,1.048,1.355c0,0,3.192,1.389,4.724,2.714c0,0,1.238,0.783,0.705,1.75
			C34.036,24.516,32.924,26.962,31.977,26.641z"/>
	</g>
	<g>
		<path fill="#FFFFFF" d="M18.823,0.611c0,0-18.399,12.209-18.399,27.123c0,10.161,8.237,18.403,18.399,18.403
			c10.16,0,18.398-8.242,18.398-18.403C37.221,14.373,18.823,0.611,18.823,0.611z M31.977,26.641
			c-1.263,1.612-2.062,2.109-2.062,2.109c0.206-0.538,0.546-1.58,0.112-1.997c-0.302-0.278-0.75-0.474-1.143-0.579
			c-0.775-0.191-1.606-0.128-2.395-0.053c-0.725,0.065-1.492,0.21-1.851,0.937c-0.263,0.52-0.368,1.089-0.311,1.665
			c0.079,0.772,0.154,1.547,0.742,2.111c0.132,0.131,0.282,0.25,0.444,0.357c0.803,0.548,1.78,0.935,2.705,1.207
			c0.652,0.079,1.73-1.713,1.73-1.713c-0.05,1.074-0.426,2.163-0.426,2.163c0,0.285,0.081,0.608,0.313,0.949
			c0.146,0.215-0.1,0.504-0.31,0.641c-0.215,0.13-2.093,1.242-2.844,1.418c-0.755,0.185-0.998,0.264-1.963-0.356
			c-0.963-0.622-2.339-1.634-3.79-1.585c0,0-2.979,0.129-4.005,1.262c-3.107,3.408-4.291,7.527-4.291,7.527
			c-1.43-0.726-2.738-1.646-3.938-2.68c0,0-2.623-2.443-3.402-3.949c0.464,0.363,0.648,0.5,0.648,0.5
			c0.958,0.702,2.346,1.694,3.728,2.031c0.752,0.187,1.499,0.183,2.184-0.162c1.12-0.563,1.465-2.211,1.738-3.314
			c0.609-2.443,0.492-5.142,0.355-7.638c0,0,0.302,0.697,1.67,2.688c2.097,2.671,5.196,2.018,6.262,1.962
			c1.036,0.709,2.733,1.875,3.692,2.437c0.962,0.566,1.202,0.211,1.984-0.194c0.787-0.408,0.122-0.925-0.376-1.194
			c-0.493-0.259-2.875-1.875-3.294-2.198c-0.419-0.337-0.419-1.118-0.419-1.612c0-0.496,0.033-2.302,0.033-2.302
			c0.01-0.654-0.663-1.137-0.663-1.137s3.491-0.946,7.838-0.583c0.703,0.06,1.026-0.421,1.026-0.421
			c0.975-1.178,0.496-2.336,0.496-2.336c-0.24-0.926-2.645-2.233-4.133-2.458c-1.487-0.223-4.519-0.384-4.519-0.384
			s1.599-0.951,0.54-1.426c-0.457-0.202-1.541-0.574-2.78-0.715c-2.11-0.243-3.889-0.364-6.512,0.154
			c-2.622,0.518-2.467,0.758-2.658,1.396c-0.183,0.64-0.126,0.998-1.86,1.399c-3.99,0.927-7.946,4.611-7.946,4.611
			c1.251-2.007,6.68-6.468,6.68-6.468c0.236-0.188,0.753-0.548,0.892-0.86c0,0-0.323-2.06-0.535-2.33c0,0,1.7,0.091,2.854,0.526
			c1.154,0.441,1.334,0.479,1.334,0.479s3.619-0.783,7.098-0.586c3.482,0.192,5.867,1.046,7.451,1.796
			c0.317,0.145,0.542,1.095,1.048,1.355c0,0,3.192,1.389,4.724,2.714c0,0,1.238,0.783,0.705,1.75
			C34.036,24.516,32.924,26.962,31.977,26.641z"/>
	</g>
</g>
</svg>
