<?xml version="1.0" encoding="utf-8"?>
<!-- Generator: Adobe Illustrator 16.0.0, SVG Export Plug-In . SVG Version: 6.00 Build 0)  -->
<!DOCTYPE svg PUBLIC "-//W3C//DTD SVG 1.1//EN" "http://www.w3.org/Graphics/SVG/1.1/DTD/svg11.dtd">
<svg version="1.1" id="Layer_1" xmlns="http://www.w3.org/2000/svg" xmlns:xlink="http://www.w3.org/1999/xlink" x="0px" y="0px"
	 width="128.175px" height="13.688px" viewBox="46.75 18.038 128.175 13.688" enable-background="new 46.75 18.038 128.175 13.688"
	 xml:space="preserve">
<g>
	<g>
		<g>
			<path fill="#FFFFFF" d="M48.862,29.84c-1.693-1.52-2.112-3.509-2.112-5.168c0-1.169,0.401-3.212,1.956-4.766
				c1.047-1.048,2.636-1.868,5.325-1.868c0.698,0,1.676,0.052,2.532,0.209c0.663,0.122,1.222,0.228,1.78,0.262
				c0.192,0.019,0.227,0.088,0.227,0.192c0,0.14-0.052,0.349-0.087,0.977c-0.035,0.577-0.035,1.537-0.052,1.799
				c-0.017,0.261-0.052,0.366-0.157,0.366c-0.122,0-0.14-0.121-0.14-0.366c0-0.682-0.279-1.396-0.733-1.781
				C56.79,19.172,55.446,18.7,53.91,18.7c-2.322,0-3.405,0.68-4.016,1.273c-1.274,1.224-1.571,2.775-1.571,4.558
				c0,3.335,2.566,6.39,6.303,6.39c1.309,0,2.339-0.156,3.038-0.873c0.366-0.384,0.593-1.151,0.646-1.467
				c0.035-0.19,0.07-0.263,0.174-0.263c0.087,0,0.123,0.122,0.123,0.263c0,0.122-0.21,1.642-0.384,2.233
				c-0.105,0.332-0.14,0.367-0.454,0.508c-0.698,0.278-2.025,0.4-3.142,0.4C52.004,31.726,50.241,31.08,48.862,29.84z"/>
			<path fill="#FFFFFF" d="M67.501,18.039c3.928,0,6.861,2.479,6.861,6.547c0,3.911-2.759,7.141-6.966,7.141
				c-4.783,0-6.774-3.719-6.774-6.86C60.623,22.036,62.683,18.039,67.501,18.039z M67.868,31.063c1.571,0,4.818-0.907,4.818-5.987
				c0-4.19-2.548-6.442-5.307-6.442c-2.916,0-5.098,1.921-5.098,5.743C62.281,28.443,64.726,31.063,67.868,31.063z"/>
			<path fill="#FFFFFF" d="M77.568,23.346c0-2.725,0-3.213-0.035-3.771c-0.035-0.595-0.175-0.873-0.751-0.995
				c-0.139-0.035-0.436-0.053-0.593-0.053c-0.07,0-0.14-0.034-0.14-0.104c0-0.104,0.087-0.14,0.279-0.14
				c0.786,0,1.85,0.053,2.007,0.053c0.157,0,1.205-0.053,1.729-0.053c0.192,0,0.279,0.034,0.279,0.14c0,0.07-0.07,0.104-0.14,0.104
				c-0.122,0-0.227,0.019-0.437,0.053c-0.472,0.069-0.611,0.384-0.646,0.995c-0.035,0.559-0.035,1.047-0.035,3.771v2.443
				c0,2.515,0.559,3.598,1.31,4.313c0.855,0.804,1.641,0.96,2.636,0.96c1.065,0,2.112-0.507,2.741-1.257
				c0.803-0.996,1.013-2.479,1.013-4.278v-2.182c0-2.725,0-3.213-0.035-3.771c-0.035-0.595-0.175-0.873-0.751-0.995
				c-0.14-0.035-0.436-0.053-0.593-0.053c-0.07,0-0.14-0.034-0.14-0.104c0-0.104,0.087-0.14,0.279-0.14
				c0.785,0,1.746,0.053,1.851,0.053c0.123,0,0.943-0.053,1.466-0.053c0.192,0,0.279,0.034,0.279,0.14c0,0.07-0.07,0.104-0.14,0.104
				c-0.122,0-0.227,0.019-0.437,0.053c-0.471,0.104-0.611,0.384-0.646,0.995c-0.035,0.559-0.035,1.047-0.035,3.771v1.867
				c0,1.886-0.209,3.979-1.606,5.221c-1.257,1.116-2.566,1.292-3.597,1.292c-0.594,0-2.356-0.069-3.596-1.24
				c-0.855-0.819-1.519-2.042-1.519-4.591v-2.549H77.568z"/>
			<path fill="#FFFFFF" d="M101.356,27.029c0-1.413-0.086-1.605-0.785-1.798c-0.141-0.035-0.438-0.052-0.594-0.052
				c-0.069,0-0.141-0.035-0.141-0.104c0-0.105,0.087-0.141,0.279-0.141c0.785,0,1.886,0.053,1.973,0.053
				c0.09,0,1.188-0.053,1.711-0.053c0.192,0,0.28,0.034,0.28,0.141c0,0.069-0.07,0.104-0.142,0.104
				c-0.121,0-0.227,0.019-0.437,0.052c-0.472,0.087-0.61,0.385-0.646,0.996c-0.035,0.56-0.035,1.083-0.035,1.814v1.955
				c0,0.786-0.018,0.819-0.228,0.942c-1.116,0.595-2.688,0.786-3.7,0.786c-1.328,0-3.808-0.175-5.744-1.868
				c-1.064-0.925-2.078-2.793-2.078-4.976c0-2.793,1.36-4.766,2.916-5.743c1.572-0.979,3.3-1.101,4.645-1.101
				c1.1,0,2.34,0.228,2.672,0.297c0.366,0.087,0.979,0.157,1.414,0.174c0.176,0.019,0.209,0.088,0.209,0.157
				c0,0.244-0.121,0.732-0.121,2.479c0,0.279-0.035,0.367-0.158,0.367c-0.086,0-0.104-0.104-0.121-0.263
				c-0.019-0.244-0.104-0.732-0.366-1.151c-0.437-0.664-1.851-1.414-4.103-1.414c-1.101,0-2.41,0.104-3.736,1.151
				c-1.014,0.804-1.729,2.393-1.729,4.436c0,2.461,1.24,4.242,1.852,4.836c1.38,1.345,2.969,1.868,4.574,1.868
				c0.629,0,1.537-0.104,1.989-0.366c0.228-0.123,0.351-0.313,0.351-0.61v-2.971L101.356,27.029L101.356,27.029z"/>
			<path fill="#FFFFFF" d="M110.622,18.719c0.209-0.575,0.279-0.681,0.384-0.681s0.175,0.087,0.384,0.628
				c0.262,0.664,3.004,7.874,4.068,10.526c0.628,1.555,1.135,1.833,1.501,1.938c0.263,0.088,0.524,0.104,0.698,0.104
				c0.104,0,0.174,0.019,0.174,0.104c0,0.104-0.157,0.141-0.35,0.141c-0.262,0-1.537,0-2.74-0.035
				c-0.332-0.019-0.524-0.019-0.524-0.121c0-0.07,0.054-0.104,0.123-0.123c0.104-0.035,0.209-0.192,0.104-0.472l-1.625-4.295
				c-0.034-0.068-0.069-0.104-0.156-0.104h-3.753c-0.087,0-0.14,0.052-0.175,0.14l-1.047,3.091c-0.156,0.438-0.244,0.854-0.244,1.17
				c0,0.35,0.367,0.506,0.664,0.506h0.174c0.123,0,0.174,0.035,0.174,0.104c0,0.104-0.104,0.141-0.262,0.141
				c-0.42,0-1.17-0.054-1.361-0.054s-1.152,0.054-1.973,0.054c-0.229,0-0.332-0.035-0.332-0.141c0-0.069,0.07-0.104,0.156-0.104
				c0.123,0,0.366-0.018,0.508-0.034c0.803-0.104,1.152-0.769,1.466-1.642L110.622,18.719z M112.437,25.703
				c0.088,0,0.088-0.053,0.07-0.122l-1.658-4.714c-0.086-0.263-0.174-0.263-0.262,0l-1.537,4.714c-0.035,0.087,0,0.122,0.053,0.122
				H112.437z"/>
			<path fill="#FFFFFF" d="M120.324,23.346c0-2.725,0-3.213-0.036-3.771c-0.035-0.595-0.174-0.873-0.75-0.995
				c-0.141-0.035-0.438-0.053-0.594-0.053c-0.07,0-0.141-0.034-0.141-0.104c0-0.104,0.088-0.14,0.279-0.14
				c0.786,0,1.885,0.053,1.975,0.053c0.19,0,1.519-0.053,2.06-0.053c1.1,0,2.271,0.104,3.194,0.768
				c0.438,0.314,1.205,1.171,1.205,2.375c0,1.292-0.541,2.583-2.111,4.032c1.432,1.833,2.619,3.387,3.631,4.469
				c0.941,0.996,1.693,1.188,2.129,1.258c0.332,0.052,0.577,0.052,0.682,0.052c0.086,0,0.156,0.053,0.156,0.104
				c0,0.104-0.104,0.141-0.419,0.141h-1.24c-0.978,0-1.413-0.087-1.868-0.332c-0.75-0.4-1.36-1.257-2.355-2.565
				c-0.732-0.96-1.555-2.129-1.903-2.583c-0.067-0.069-0.122-0.104-0.227-0.104l-2.147-0.035c-0.087,0-0.121,0.053-0.121,0.141
				v0.419c0,1.677,0,3.056,0.088,3.789c0.051,0.506,0.155,0.891,0.68,0.96c0.244,0.035,0.629,0.069,0.785,0.069
				c0.104,0,0.141,0.053,0.141,0.104c0,0.088-0.087,0.141-0.279,0.141c-0.96,0-2.061-0.053-2.146-0.053
				c-0.019,0-1.117,0.053-1.642,0.053c-0.193,0-0.279-0.034-0.279-0.141c0-0.052,0.035-0.104,0.141-0.104
				c0.157,0,0.367-0.034,0.523-0.069c0.35-0.069,0.438-0.454,0.507-0.96c0.087-0.732,0.087-2.111,0.087-3.789v-3.074H120.324z
				 M121.72,24.865c0,0.088,0.035,0.156,0.122,0.21c0.263,0.156,1.065,0.278,1.833,0.278c0.42,0,0.908-0.053,1.309-0.332
				c0.611-0.419,1.065-1.36,1.065-2.688c0-2.183-1.151-3.491-3.021-3.491c-0.523,0-0.995,0.053-1.17,0.104
				c-0.088,0.035-0.139,0.104-0.139,0.211V24.865L121.72,24.865z"/>
			<path fill="#FFFFFF" d="M139.153,23.346c0-2.725,0-3.213-0.035-3.771c-0.036-0.595-0.176-0.873-0.751-0.995
				c-0.14-0.035-0.437-0.053-0.593-0.053c-0.07,0-0.142-0.034-0.142-0.104c0-0.104,0.089-0.14,0.279-0.14
				c0.786,0,1.833,0.053,1.973,0.053c0.386,0,1.396-0.053,2.2-0.053c2.184,0,2.969,0.732,3.247,0.994
				c0.384,0.367,0.873,1.152,0.873,2.078c0,2.479-1.813,4.154-4.295,4.154c-0.087,0-0.279,0-0.366-0.018
				c-0.087,0-0.191-0.035-0.191-0.122c0-0.141,0.104-0.157,0.472-0.157c1.692,0,3.021-1.239,3.021-2.846
				c0-0.576-0.053-1.746-0.978-2.689c-0.925-0.941-1.99-0.872-2.392-0.872c-0.297,0-0.596,0.034-0.752,0.104
				c-0.104,0.034-0.14,0.156-0.14,0.332v7.175c0,1.676,0,3.056,0.087,3.789c0.053,0.506,0.157,0.891,0.682,0.96
				c0.244,0.035,0.629,0.069,0.785,0.069c0.104,0,0.141,0.053,0.141,0.104c0,0.087-0.088,0.141-0.279,0.141
				c-0.96,0-2.061-0.054-2.146-0.054c-0.054,0-1.151,0.054-1.677,0.054c-0.192,0-0.28-0.035-0.28-0.141
				c0-0.052,0.035-0.104,0.142-0.104c0.155,0,0.366-0.034,0.522-0.069c0.35-0.069,0.438-0.454,0.506-0.96
				c0.086-0.732,0.086-2.112,0.086-3.789v-3.07L139.153,23.346L139.153,23.346z"/>
			<path fill="#FFFFFF" d="M151.562,26.418c0,1.676,0,3.056,0.086,3.789c0.055,0.506,0.158,0.891,0.683,0.96
				c0.245,0.035,0.629,0.069,0.786,0.069c0.104,0,0.14,0.053,0.14,0.104c0,0.087-0.087,0.141-0.278,0.141
				c-0.961,0-2.061-0.054-2.146-0.054s-1.188,0.054-1.711,0.054c-0.191,0-0.279-0.035-0.279-0.141c0-0.052,0.035-0.104,0.141-0.104
				c0.156,0,0.367-0.034,0.522-0.069c0.349-0.069,0.437-0.454,0.506-0.96c0.087-0.732,0.087-2.112,0.087-3.789v-3.073
				c0-2.724,0-3.212-0.035-3.771c-0.035-0.595-0.209-0.891-0.594-0.979c-0.191-0.052-0.419-0.069-0.541-0.069
				c-0.07,0-0.14-0.034-0.14-0.104c0-0.104,0.087-0.14,0.278-0.14c0.578,0,1.677,0.053,1.765,0.053s1.187-0.053,1.71-0.053
				c0.191,0,0.279,0.034,0.279,0.14c0,0.07-0.069,0.104-0.139,0.104c-0.123,0-0.229,0.019-0.438,0.053
				c-0.472,0.087-0.61,0.384-0.646,0.995c-0.035,0.559-0.035,1.047-0.035,3.771V26.418L151.562,26.418z"/>
			<path fill="#FFFFFF" d="M157.772,23.346c0-2.725,0-3.213-0.035-3.771c-0.035-0.595-0.174-0.873-0.75-0.995
				c-0.141-0.035-0.438-0.053-0.594-0.053c-0.069,0-0.141-0.034-0.141-0.104c0-0.104,0.086-0.14,0.279-0.14
				c0.783,0,1.833,0.053,1.973,0.053c0.385,0,1.396-0.053,2.2-0.053c2.185,0,2.968,0.732,3.247,0.994
				c0.384,0.367,0.873,1.152,0.873,2.078c0,2.479-1.816,4.154-4.295,4.154c-0.09,0-0.279,0-0.367-0.018
				c-0.087,0-0.189-0.035-0.189-0.122c0-0.141,0.104-0.157,0.471-0.157c1.693,0,3.021-1.239,3.021-2.846
				c0-0.576-0.052-1.746-0.978-2.689c-0.926-0.941-1.99-0.872-2.394-0.872c-0.297,0-0.594,0.034-0.751,0.104
				c-0.104,0.034-0.14,0.156-0.14,0.332v7.175c0,1.676,0,3.056,0.088,3.789c0.052,0.506,0.157,0.891,0.683,0.96
				c0.242,0.035,0.627,0.069,0.783,0.069c0.104,0,0.141,0.053,0.141,0.104c0,0.087-0.086,0.141-0.278,0.141
				c-0.96,0-2.06-0.054-2.147-0.054c-0.052,0-1.152,0.054-1.676,0.054c-0.191,0-0.279-0.035-0.279-0.141
				c0-0.052,0.035-0.104,0.142-0.104c0.155,0,0.364-0.034,0.522-0.069c0.35-0.069,0.438-0.454,0.506-0.96
				c0.086-0.732,0.086-2.112,0.086-3.789V23.346L157.772,23.346z"/>
			<path fill="#FFFFFF" d="M168.713,23.346c0-2.725,0-3.213-0.034-3.771c-0.035-0.595-0.175-0.873-0.75-0.995
				c-0.141-0.035-0.438-0.053-0.595-0.053c-0.069,0-0.14-0.034-0.14-0.104c0-0.104,0.088-0.14,0.279-0.14c0.4,0,0.873,0,1.256,0.018
				l0.717,0.035c0.123,0,3.597,0,3.998-0.019c0.332-0.018,0.611-0.053,0.75-0.087c0.089-0.019,0.158-0.087,0.244-0.087
				c0.054,0,0.068,0.068,0.068,0.156c0,0.122-0.086,0.332-0.14,0.82c-0.019,0.175-0.054,0.942-0.086,1.152
				c-0.019,0.087-0.056,0.19-0.123,0.19c-0.104,0-0.142-0.087-0.142-0.228c0-0.121-0.018-0.418-0.104-0.628
				c-0.121-0.278-0.296-0.488-1.238-0.593c-0.297-0.035-2.199-0.053-2.393-0.053c-0.069,0-0.104,0.053-0.104,0.174v4.819
				c0,0.122,0.019,0.174,0.104,0.174c0.228,0,2.373,0,2.775-0.035c0.418-0.034,0.662-0.069,0.819-0.244
				c0.122-0.14,0.192-0.227,0.263-0.227c0.053,0,0.086,0.035,0.086,0.14s-0.086,0.4-0.139,0.979c-0.035,0.349-0.07,0.994-0.07,1.116
				c0,0.141,0,0.332-0.121,0.332c-0.088,0-0.123-0.068-0.123-0.156c0-0.175,0-0.35-0.068-0.576c-0.069-0.244-0.229-0.541-0.908-0.61
				c-0.471-0.053-2.197-0.088-2.496-0.088c-0.087,0-0.119,0.054-0.119,0.123v1.536c0,0.595-0.021,2.619,0,2.985
				c0.051,1.204,0.313,1.432,2.021,1.432c0.453,0,1.223,0,1.677-0.191s0.663-0.541,0.785-1.258c0.035-0.191,0.069-0.262,0.155-0.262
				c0.105,0,0.105,0.141,0.105,0.262c0,0.141-0.14,1.327-0.229,1.693c-0.12,0.454-0.262,0.454-0.941,0.454
				c-1.311,0-2.27-0.035-2.949-0.053c-0.683-0.034-1.101-0.054-1.363-0.054c-0.032,0-0.33,0-0.696,0.02
				c-0.351,0-0.75,0.034-1.015,0.034c-0.189,0-0.277-0.034-0.277-0.141c0-0.052,0.035-0.104,0.14-0.104
				c0.157,0,0.366-0.035,0.523-0.07c0.351-0.069,0.438-0.454,0.507-0.96c0.087-0.732,0.087-2.112,0.087-3.789L168.713,23.346
				L168.713,23.346z"/>
		</g>
	</g>
</g>
</svg>
