<?xml version="1.0" encoding="utf-8"?>
<!-- Generator: Adobe Illustrator 16.0.0, SVG Export Plug-In . SVG Version: 6.00 Build 0)  -->
<!DOCTYPE svg PUBLIC "-//W3C//DTD SVG 1.1//EN" "http://www.w3.org/Graphics/SVG/1.1/DTD/svg11.dtd">
<svg version="1.1" id="Layer_1" xmlns="http://www.w3.org/2000/svg" xmlns:xlink="http://www.w3.org/1999/xlink" x="0px" y="0px"
	 width="87.907px" height="108.639px" viewBox="66.871 -13.431 87.907 108.639"
	 enable-background="new 66.871 -13.431 87.907 108.639" xml:space="preserve">
<g>
	<g>
		<g>
			<path fill="#231F20" stroke="#231F20" stroke-miterlimit="10" d="M110.827-12.82c0,0-43.456,28.835-43.456,64.06
				c0,24.001,19.455,43.468,43.456,43.468c23.994,0,43.451-19.467,43.451-43.468C154.278,19.686,110.827-12.82,110.827-12.82z
				 M141.893,48.661c-2.981,3.811-4.868,4.982-4.868,4.982c0.486-1.269,1.289-3.732,0.265-4.715c-0.715-0.659-1.771-1.121-2.7-1.37
				c-1.83-0.452-3.795-0.3-5.658-0.124c-1.711,0.156-3.522,0.498-4.368,2.209c-0.623,1.228-0.872,2.574-0.736,3.936
				c0.187,1.826,0.362,3.653,1.751,4.986c0.313,0.309,0.669,0.591,1.052,0.844c1.896,1.297,4.202,2.21,6.387,2.852
				c1.54,0.188,4.087-4.046,4.087-4.046c-0.118,2.542-1.008,5.111-1.008,5.111c0,0.673,0.188,1.439,0.74,2.241
				c0.344,0.508-0.233,1.19-0.731,1.514c-0.507,0.305-4.94,2.934-6.716,3.349c-1.783,0.434-2.357,0.623-4.637-0.844
				c-2.273-1.467-5.523-3.856-8.949-3.741c0,0-7.037,0.305-9.461,2.979c-7.339,8.05-10.135,17.778-10.135,17.778
				c-3.376-1.716-6.467-3.889-9.299-6.329c0,0-6.195-5.771-8.036-9.327c1.096,0.858,1.531,1.181,1.531,1.181
				c2.261,1.656,5.541,4,8.804,4.798c1.776,0.438,3.541,0.429,5.16-0.383c2.643-1.328,3.459-5.222,4.103-7.828
				c1.439-5.775,1.163-12.146,0.838-18.041c0,0,0.715,1.646,3.946,6.348c4.952,6.306,12.272,4.765,14.789,4.631
				c2.447,1.675,6.455,4.429,8.721,5.757c2.271,1.338,2.837,0.498,4.682-0.461c1.859-0.964,0.291-2.182-0.888-2.823
				c-1.165-0.609-6.79-4.429-7.777-5.189c-0.989-0.798-0.989-2.644-0.989-3.811c0-1.172,0.078-5.434,0.078-5.434
				c0.023-1.546-1.566-2.685-1.566-2.685s8.246-2.237,18.515-1.38c1.66,0.144,2.422-0.991,2.422-0.991
				c2.302-2.782,1.171-5.52,1.171-5.52c-0.564-2.185-6.248-5.275-9.761-5.806c-3.511-0.523-10.672-0.904-10.672-0.904
				s3.775-2.249,1.275-3.367c-1.079-0.478-3.64-1.356-6.564-1.688c-4.986-0.574-9.187-0.86-15.382,0.364
				c-6.192,1.223-5.826,1.79-6.277,3.301c-0.432,1.509-0.298,2.357-4.395,3.306c-9.422,2.188-18.765,10.891-18.765,10.891
				c2.955-4.737,15.776-15.273,15.776-15.273c0.558-0.442,1.78-1.294,2.108-2.034c0,0-0.764-4.862-1.264-5.503
				c0,0,4.013,0.215,6.739,1.246c2.727,1.042,3.15,1.13,3.15,1.13s8.548-1.85,16.764-1.384c8.225,0.457,13.857,2.471,17.599,4.242
				c0.749,0.341,1.282,2.585,2.477,3.203c0,0,7.54,3.277,11.156,6.407c0,0,2.928,1.853,1.666,4.134
				C146.757,43.643,144.13,49.418,141.893,48.661z"/>
		</g>
		<g>
			<path fill="#231F20" stroke="#231F20" stroke-miterlimit="10" d="M110.827-12.82c0,0-43.456,28.835-43.456,64.06
				c0,24.001,19.455,43.468,43.456,43.468c23.994,0,43.451-19.467,43.451-43.468C154.278,19.686,110.827-12.82,110.827-12.82z
				 M141.893,48.661c-2.981,3.811-4.868,4.982-4.868,4.982c0.486-1.269,1.289-3.732,0.265-4.715c-0.715-0.659-1.771-1.121-2.7-1.37
				c-1.83-0.452-3.795-0.3-5.658-0.124c-1.711,0.156-3.522,0.498-4.368,2.209c-0.623,1.228-0.872,2.574-0.736,3.936
				c0.187,1.826,0.362,3.653,1.751,4.986c0.313,0.309,0.669,0.591,1.052,0.844c1.896,1.297,4.202,2.21,6.387,2.852
				c1.54,0.188,4.087-4.046,4.087-4.046c-0.118,2.542-1.008,5.111-1.008,5.111c0,0.673,0.188,1.439,0.74,2.241
				c0.344,0.508-0.233,1.19-0.731,1.514c-0.507,0.305-4.94,2.934-6.716,3.349c-1.783,0.434-2.357,0.623-4.637-0.844
				c-2.273-1.467-5.523-3.856-8.949-3.741c0,0-7.037,0.305-9.461,2.979c-7.339,8.05-10.135,17.778-10.135,17.778
				c-3.376-1.716-6.467-3.889-9.299-6.329c0,0-6.195-5.771-8.036-9.327c1.096,0.858,1.531,1.181,1.531,1.181
				c2.261,1.656,5.541,4,8.804,4.798c1.776,0.438,3.541,0.429,5.16-0.383c2.643-1.328,3.459-5.222,4.103-7.828
				c1.439-5.775,1.163-12.146,0.838-18.041c0,0,0.715,1.646,3.946,6.348c4.952,6.306,12.272,4.765,14.789,4.631
				c2.447,1.675,6.455,4.429,8.721,5.757c2.271,1.338,2.837,0.498,4.682-0.461c1.859-0.964,0.291-2.182-0.888-2.823
				c-1.165-0.609-6.79-4.429-7.777-5.189c-0.989-0.798-0.989-2.644-0.989-3.811c0-1.172,0.078-5.434,0.078-5.434
				c0.023-1.546-1.566-2.685-1.566-2.685s8.246-2.237,18.515-1.38c1.66,0.144,2.422-0.991,2.422-0.991
				c2.302-2.782,1.171-5.52,1.171-5.52c-0.564-2.185-6.248-5.275-9.761-5.806c-3.511-0.523-10.672-0.904-10.672-0.904
				s3.775-2.249,1.275-3.367c-1.079-0.478-3.64-1.356-6.564-1.688c-4.986-0.574-9.187-0.86-15.382,0.364
				c-6.192,1.223-5.826,1.79-6.277,3.301c-0.432,1.509-0.298,2.357-4.395,3.306c-9.422,2.188-18.765,10.891-18.765,10.891
				c2.955-4.737,15.776-15.273,15.776-15.273c0.558-0.442,1.78-1.294,2.108-2.034c0,0-0.764-4.862-1.264-5.503
				c0,0,4.013,0.215,6.739,1.246c2.727,1.042,3.15,1.13,3.15,1.13s8.548-1.85,16.764-1.384c8.225,0.457,13.857,2.471,17.599,4.242
				c0.749,0.341,1.282,2.585,2.477,3.203c0,0,7.54,3.277,11.156,6.407c0,0,2.928,1.853,1.666,4.134
				C146.757,43.643,144.13,49.418,141.893,48.661z"/>
		</g>
	</g>
	<g>
		<circle fill="#FFFFFF" cx="110.827" cy="51.269" r="41.082"/>
		<g>
			<g>
				<path fill="#231F20" d="M110.827-12.821c0,0-43.456,28.836-43.456,64.061c0,24.001,19.455,43.468,43.456,43.468
					c23.994,0,43.451-19.467,43.451-43.468C154.278,19.683,110.827-12.821,110.827-12.821z M141.893,48.661
					c-2.981,3.811-4.868,4.982-4.868,4.982c0.486-1.269,1.289-3.732,0.265-4.715c-0.715-0.659-1.771-1.121-2.7-1.37
					c-1.83-0.452-3.795-0.3-5.658-0.124c-1.711,0.156-3.522,0.498-4.368,2.209c-0.623,1.228-0.872,2.574-0.736,3.936
					c0.187,1.826,0.362,3.653,1.751,4.986c0.313,0.309,0.669,0.591,1.052,0.844c1.896,1.297,4.202,2.21,6.387,2.852
					c1.54,0.188,4.087-4.046,4.087-4.046c-0.118,2.542-1.008,5.111-1.008,5.111c0,0.673,0.193,1.439,0.74,2.241
					c0.344,0.508-0.237,1.19-0.731,1.514c-0.507,0.305-4.945,2.934-6.716,3.349c-1.785,0.434-2.357,0.623-4.639-0.844
					c-2.274-1.467-5.524-3.856-8.951-3.741c0,0-7.035,0.305-9.459,2.979c-7.337,8.05-10.135,17.778-10.135,17.778
					c-3.377-1.716-6.465-3.889-9.302-6.329c0,0-6.195-5.771-8.034-9.327c1.096,0.858,1.529,1.181,1.529,1.181
					c2.265,1.656,5.542,4,8.806,4.798c1.776,0.438,3.54,0.429,5.157-0.383c2.647-1.328,3.46-5.222,4.105-7.828
					c1.439-5.775,1.162-12.146,0.84-18.041c0,0,0.712,1.646,3.943,6.348c4.952,6.306,12.271,4.765,14.789,4.631
					c2.447,1.675,6.454,4.429,8.719,5.757c2.274,1.338,2.842,0.498,4.687-0.461c1.859-0.964,0.289-2.182-0.888-2.823
					c-1.165-0.609-6.79-4.429-7.779-5.189c-0.99-0.798-0.99-2.644-0.99-3.811c0-1.172,0.079-5.434,0.079-5.434
					c0.022-1.546-1.566-2.685-1.566-2.685s8.246-2.237,18.512-1.38c1.66,0.144,2.424-0.991,2.424-0.991
					c2.302-2.782,1.17-5.522,1.17-5.522c-0.565-2.182-6.246-5.272-9.762-5.803c-3.51-0.525-10.672-0.904-10.672-0.904
					s3.776-2.251,1.275-3.367c-1.079-0.479-3.639-1.356-6.566-1.688c-4.984-0.576-9.184-0.862-15.379,0.364
					c-6.193,1.223-5.826,1.79-6.278,3.299c-0.432,1.508-0.298,2.356-4.394,3.308c-9.422,2.187-18.765,10.891-18.765,10.891
					c2.954-4.737,15.776-15.273,15.776-15.273c0.558-0.442,1.778-1.296,2.108-2.034c0,0-0.764-4.862-1.264-5.503
					c0,0,4.014,0.212,6.739,1.246c2.727,1.042,3.15,1.13,3.15,1.13s8.548-1.85,16.764-1.384c8.225,0.457,13.857,2.468,17.599,4.239
					c0.749,0.342,1.282,2.588,2.478,3.206c0,0,7.537,3.275,11.156,6.407c0,0,2.922,1.85,1.665,4.134
					C146.757,43.643,144.13,49.418,141.893,48.661z"/>
			</g>
			<g>
				<path fill="#231F20" d="M110.827-12.821c0,0-43.456,28.836-43.456,64.061c0,24.001,19.455,43.468,43.456,43.468
					c23.994,0,43.451-19.467,43.451-43.468C154.278,19.683,110.827-12.821,110.827-12.821z M141.893,48.661
					c-2.981,3.811-4.868,4.982-4.868,4.982c0.486-1.269,1.289-3.732,0.265-4.715c-0.715-0.659-1.771-1.121-2.7-1.37
					c-1.83-0.452-3.795-0.3-5.658-0.124c-1.711,0.156-3.522,0.498-4.368,2.209c-0.623,1.228-0.872,2.574-0.736,3.936
					c0.187,1.826,0.362,3.653,1.751,4.986c0.313,0.309,0.669,0.591,1.052,0.844c1.896,1.297,4.202,2.21,6.387,2.852
					c1.54,0.188,4.087-4.046,4.087-4.046c-0.118,2.542-1.008,5.111-1.008,5.111c0,0.673,0.193,1.439,0.74,2.241
					c0.344,0.508-0.237,1.19-0.731,1.514c-0.507,0.305-4.945,2.934-6.716,3.349c-1.785,0.434-2.357,0.623-4.639-0.844
					c-2.274-1.467-5.524-3.856-8.951-3.741c0,0-7.035,0.305-9.459,2.979c-7.337,8.05-10.135,17.778-10.135,17.778
					c-3.377-1.716-6.465-3.889-9.302-6.329c0,0-6.195-5.771-8.034-9.327c1.096,0.858,1.529,1.181,1.529,1.181
					c2.265,1.656,5.542,4,8.806,4.798c1.776,0.438,3.54,0.429,5.157-0.383c2.647-1.328,3.46-5.222,4.105-7.828
					c1.439-5.775,1.162-12.146,0.84-18.041c0,0,0.712,1.646,3.943,6.348c4.952,6.306,12.271,4.765,14.789,4.631
					c2.447,1.675,6.454,4.429,8.719,5.757c2.274,1.338,2.842,0.498,4.687-0.461c1.859-0.964,0.289-2.182-0.888-2.823
					c-1.165-0.609-6.79-4.429-7.779-5.189c-0.99-0.798-0.99-2.644-0.99-3.811c0-1.172,0.079-5.434,0.079-5.434
					c0.022-1.546-1.566-2.685-1.566-2.685s8.246-2.237,18.512-1.38c1.66,0.144,2.424-0.991,2.424-0.991
					c2.302-2.782,1.17-5.522,1.17-5.522c-0.565-2.182-6.246-5.272-9.762-5.803c-3.51-0.525-10.672-0.904-10.672-0.904
					s3.776-2.251,1.275-3.367c-1.079-0.479-3.639-1.356-6.566-1.688c-4.984-0.576-9.184-0.862-15.379,0.364
					c-6.193,1.223-5.826,1.79-6.278,3.299c-0.432,1.508-0.298,2.356-4.394,3.308c-9.422,2.187-18.765,10.891-18.765,10.891
					c2.954-4.737,15.776-15.273,15.776-15.273c0.558-0.442,1.778-1.296,2.108-2.034c0,0-0.764-4.862-1.264-5.503
					c0,0,4.014,0.212,6.739,1.246c2.727,1.042,3.15,1.13,3.15,1.13s8.548-1.85,16.764-1.384c8.225,0.457,13.857,2.468,17.599,4.239
					c0.749,0.342,1.282,2.588,2.478,3.206c0,0,7.537,3.275,11.156,6.407c0,0,2.922,1.85,1.665,4.134
					C146.757,43.643,144.13,49.418,141.893,48.661z"/>
			</g>
		</g>
	</g>
</g>
</svg>
