<?xml version="1.0" encoding="utf-8"?>
<!-- Generator: Adobe Illustrator 16.0.0, SVG Export Plug-In . SVG Version: 6.00 Build 0)  -->
<!DOCTYPE svg PUBLIC "-//W3C//DTD SVG 1.1//EN" "http://www.w3.org/Graphics/SVG/1.1/DTD/svg11.dtd">
<svg version="1.1" id="Layer_1" xmlns="http://www.w3.org/2000/svg" xmlns:xlink="http://www.w3.org/1999/xlink" x="0px" y="0px"
	 width="200px" height="200px" viewBox="0 0 200 200" enable-background="new 0 0 200 200" xml:space="preserve">
<g>
	<g>
		<g>
			<g>
				<path fill="#231F20" stroke="#231F20" stroke-miterlimit="10" d="M100.002,17.177c0,0-66.942,44.42-66.942,98.686
					c0,36.975,29.971,66.963,66.942,66.963c36.966,0,66.938-29.988,66.938-66.963C166.94,67.251,100.002,17.177,100.002,17.177z
					 M147.862,111.89c-4.591,5.871-7.5,7.674-7.5,7.674c0.748-1.955,1.985-5.748,0.407-7.266c-1.099-1.014-2.727-1.727-4.158-2.11
					c-2.819-0.696-5.846-0.46-8.716-0.188c-2.638,0.238-5.426,0.765-6.729,3.399c-0.961,1.895-1.344,3.967-1.133,6.066
					c0.287,2.811,0.556,5.627,2.696,7.68c0.482,0.477,1.033,0.91,1.621,1.301c2.919,1.998,6.473,3.404,9.839,4.395
					c2.371,0.289,6.296-6.236,6.296-6.236c-0.184,3.918-1.552,7.877-1.552,7.877c0,1.035,0.289,2.217,1.138,3.451
					c0.532,0.785-0.358,1.832-1.125,2.332c-0.779,0.471-7.608,4.52-10.346,5.158c-2.746,0.672-3.632,0.961-7.144-1.301
					c-3.503-2.26-8.509-5.938-13.785-5.76c0,0-10.84,0.467-14.576,4.588c-11.304,12.4-15.613,27.385-15.613,27.385
					c-5.2-2.643-9.962-5.99-14.326-9.746c0,0-9.542-8.891-12.377-14.369c1.687,1.322,2.356,1.818,2.356,1.818
					c3.483,2.551,8.536,6.162,13.563,7.391c2.738,0.674,5.456,0.662,7.95-0.588c4.07-2.047,5.327-8.045,6.321-12.061
					c2.218-8.896,1.789-18.711,1.289-27.793c0,0,1.102,2.535,6.08,9.777c7.628,9.719,18.905,7.342,22.782,7.137
					c3.769,2.582,9.943,6.822,13.436,8.869c3.498,2.061,4.37,0.768,7.211-0.709c2.866-1.488,0.451-3.363-1.368-4.352
					c-1.791-0.936-10.458-6.822-11.979-7.994c-1.521-1.229-1.521-4.07-1.521-5.869c0-1.807,0.118-8.371,0.118-8.371
					c0.035-2.381-2.414-4.138-2.414-4.138s12.705-3.445,28.525-2.124c2.557,0.22,3.733-1.526,3.733-1.526
					c3.542-4.287,1.8-8.504,1.8-8.504c-0.866-3.366-9.624-8.126-15.035-8.945c-5.41-0.805-16.441-1.393-16.441-1.393
					s5.816-3.462,1.965-5.185c-1.662-0.739-5.607-2.092-10.113-2.603c-7.678-0.883-14.15-1.325-23.694,0.561
					c-9.539,1.886-8.976,2.759-9.67,5.084c-0.667,2.325-0.461,3.633-6.771,5.094c-14.515,3.372-28.91,16.78-28.91,16.78
					c4.554-7.299,24.306-23.531,24.306-23.531c0.86-0.682,2.74-1.994,3.249-3.132c0,0-1.177-7.491-1.949-8.479
					c0,0,6.181,0.334,10.382,1.921c4.198,1.606,4.853,1.739,4.853,1.739s13.167-2.849,25.824-2.132
					c12.67,0.704,21.349,3.809,27.112,6.535c1.15,0.525,1.973,3.982,3.816,4.936c0,0,11.616,5.048,17.188,9.868
					c0,0,4.511,2.856,2.564,6.371C155.352,104.159,151.307,113.056,147.862,111.89z"/>
			</g>
			<g>
				<path fill="#231F20" stroke="#231F20" stroke-miterlimit="10" d="M100.002,17.177c0,0-66.942,44.42-66.942,98.686
					c0,36.975,29.971,66.963,66.942,66.963c36.966,0,66.938-29.988,66.938-66.963C166.94,67.251,100.002,17.177,100.002,17.177z
					 M147.862,111.89c-4.591,5.871-7.5,7.674-7.5,7.674c0.748-1.955,1.985-5.748,0.407-7.266c-1.099-1.014-2.727-1.727-4.158-2.11
					c-2.819-0.696-5.846-0.46-8.716-0.188c-2.638,0.238-5.426,0.765-6.729,3.399c-0.961,1.895-1.344,3.967-1.133,6.066
					c0.287,2.811,0.556,5.627,2.696,7.68c0.482,0.477,1.033,0.91,1.621,1.301c2.919,1.998,6.473,3.404,9.839,4.395
					c2.371,0.289,6.296-6.236,6.296-6.236c-0.184,3.918-1.552,7.877-1.552,7.877c0,1.035,0.289,2.217,1.138,3.451
					c0.532,0.785-0.358,1.832-1.125,2.332c-0.779,0.471-7.608,4.52-10.346,5.158c-2.746,0.672-3.632,0.961-7.144-1.301
					c-3.503-2.26-8.509-5.938-13.785-5.76c0,0-10.84,0.467-14.576,4.588c-11.304,12.4-15.613,27.385-15.613,27.385
					c-5.2-2.643-9.962-5.99-14.326-9.746c0,0-9.542-8.891-12.377-14.369c1.687,1.322,2.356,1.818,2.356,1.818
					c3.483,2.551,8.536,6.162,13.563,7.391c2.738,0.674,5.456,0.662,7.95-0.588c4.07-2.047,5.327-8.045,6.321-12.061
					c2.218-8.896,1.789-18.711,1.289-27.793c0,0,1.102,2.535,6.08,9.777c7.628,9.719,18.905,7.342,22.782,7.137
					c3.769,2.582,9.943,6.822,13.436,8.869c3.498,2.061,4.37,0.768,7.211-0.709c2.866-1.488,0.451-3.363-1.368-4.352
					c-1.791-0.936-10.458-6.822-11.979-7.994c-1.521-1.229-1.521-4.07-1.521-5.869c0-1.807,0.118-8.371,0.118-8.371
					c0.035-2.381-2.414-4.138-2.414-4.138s12.705-3.445,28.525-2.124c2.557,0.22,3.733-1.526,3.733-1.526
					c3.542-4.287,1.8-8.504,1.8-8.504c-0.866-3.366-9.624-8.126-15.035-8.945c-5.41-0.805-16.441-1.393-16.441-1.393
					s5.816-3.462,1.965-5.185c-1.662-0.739-5.607-2.092-10.113-2.603c-7.678-0.883-14.15-1.325-23.694,0.561
					c-9.539,1.886-8.976,2.759-9.67,5.084c-0.667,2.325-0.461,3.633-6.771,5.094c-14.515,3.372-28.91,16.78-28.91,16.78
					c4.554-7.299,24.306-23.531,24.306-23.531c0.86-0.682,2.74-1.994,3.249-3.132c0,0-1.177-7.491-1.949-8.479
					c0,0,6.181,0.334,10.382,1.921c4.198,1.606,4.853,1.739,4.853,1.739s13.167-2.849,25.824-2.132
					c12.67,0.704,21.349,3.809,27.112,6.535c1.15,0.525,1.973,3.982,3.816,4.936c0,0,11.616,5.048,17.188,9.868
					c0,0,4.511,2.856,2.564,6.371C155.352,104.159,151.307,113.056,147.862,111.89z"/>
			</g>
		</g>
		<g>
			<path fill="#FFFFFF" d="M100.002,52.618c34.954,0,63.288,28.336,63.288,63.285c0,34.955-28.334,63.291-63.288,63.291
				c-34.95,0-63.286-28.336-63.286-63.291C36.716,80.954,65.052,52.618,100.002,52.618z"/>
			<g>
				<g>
					<path fill="#231F20" d="M100.002,17.175c0,0-66.942,44.422-66.942,98.688c0,36.975,29.971,66.963,66.942,66.963
						c36.966,0,66.938-29.988,66.938-66.963C166.94,67.249,100.002,17.175,100.002,17.175z M147.862,111.89
						c-4.591,5.871-7.5,7.674-7.5,7.674c0.748-1.955,1.985-5.748,0.407-7.266c-1.099-1.014-2.727-1.727-4.158-2.11
						c-2.819-0.696-5.846-0.46-8.716-0.188c-2.638,0.238-5.426,0.765-6.729,3.399c-0.961,1.895-1.344,3.967-1.133,6.066
						c0.287,2.811,0.556,5.627,2.696,7.68c0.482,0.477,1.033,0.91,1.621,1.301c2.919,1.998,6.473,3.404,9.839,4.395
						c2.371,0.289,6.296-6.236,6.296-6.236c-0.184,3.918-1.552,7.877-1.552,7.877c0,1.035,0.294,2.217,1.138,3.451
						c0.532,0.785-0.366,1.832-1.125,2.332c-0.779,0.471-7.618,4.52-10.346,5.158c-2.751,0.672-3.632,0.961-7.148-1.301
						c-3.5-2.26-8.509-5.938-13.788-5.76c0,0-10.837,0.467-14.573,4.588c-11.299,12.4-15.613,27.385-15.613,27.385
						c-5.2-2.643-9.957-5.99-14.327-9.746c0,0-9.544-8.891-12.378-14.369c1.688,1.322,2.356,1.818,2.356,1.818
						c3.49,2.551,8.538,6.162,13.566,7.391c2.736,0.674,5.451,0.662,7.943-0.588c4.078-2.047,5.33-8.045,6.323-12.061
						c2.218-8.896,1.79-18.711,1.295-27.793c0,0,1.099,2.535,6.077,9.777c7.625,9.719,18.899,7.342,22.782,7.137
						c3.766,2.582,9.938,6.822,13.431,8.869c3.501,2.061,4.377,0.768,7.219-0.709c2.863-1.488,0.444-3.363-1.368-4.352
						c-1.794-0.936-10.459-6.822-11.982-7.994c-1.526-1.229-1.526-4.07-1.526-5.869c0-1.807,0.123-8.371,0.123-8.371
						c0.032-2.381-2.414-4.138-2.414-4.138s12.705-3.445,28.52-2.124c2.558,0.22,3.734-1.526,3.734-1.526
						c3.547-4.287,1.803-8.509,1.803-8.509c-0.871-3.358-9.624-8.121-15.04-8.94c-5.406-0.805-16.439-1.391-16.439-1.391
						s5.816-3.468,1.964-5.187c-1.664-0.739-5.606-2.09-10.114-2.601c-7.68-0.89-14.148-1.327-23.693,0.559
						c-9.539,1.886-8.976,2.761-9.67,5.084c-0.668,2.323-0.462,3.631-6.768,5.094c-14.517,3.372-28.909,16.78-28.909,16.78
						c4.551-7.296,24.303-23.528,24.303-23.528c0.86-0.679,2.74-1.997,3.249-3.133c0,0-1.177-7.49-1.949-8.479
						c0,0,6.183,0.327,10.382,1.919c4.198,1.606,4.853,1.742,4.853,1.742s13.167-2.852,25.827-2.132
						c12.669,0.703,21.346,3.801,27.108,6.532c1.153,0.522,1.977,3.984,3.817,4.938c0,0,11.61,5.044,17.188,9.871
						c0,0,4.501,2.847,2.567,6.366C155.352,104.159,151.307,113.056,147.862,111.89z"/>
				</g>
				<g>
					<path fill="#231F20" d="M100.002,17.175c0,0-66.942,44.422-66.942,98.688c0,36.975,29.971,66.963,66.942,66.963
						c36.966,0,66.938-29.988,66.938-66.963C166.94,67.249,100.002,17.175,100.002,17.175z M147.862,111.89
						c-4.591,5.871-7.5,7.674-7.5,7.674c0.748-1.955,1.985-5.748,0.407-7.266c-1.099-1.014-2.727-1.727-4.158-2.11
						c-2.819-0.696-5.846-0.46-8.716-0.188c-2.638,0.238-5.426,0.765-6.729,3.399c-0.961,1.895-1.344,3.967-1.133,6.066
						c0.287,2.811,0.556,5.627,2.696,7.68c0.482,0.477,1.033,0.91,1.621,1.301c2.919,1.998,6.473,3.404,9.839,4.395
						c2.371,0.289,6.296-6.236,6.296-6.236c-0.184,3.918-1.552,7.877-1.552,7.877c0,1.035,0.294,2.217,1.138,3.451
						c0.532,0.785-0.366,1.832-1.125,2.332c-0.779,0.471-7.618,4.52-10.346,5.158c-2.751,0.672-3.632,0.961-7.148-1.301
						c-3.5-2.26-8.509-5.938-13.788-5.76c0,0-10.837,0.467-14.573,4.588c-11.299,12.4-15.613,27.385-15.613,27.385
						c-5.2-2.643-9.957-5.99-14.327-9.746c0,0-9.544-8.891-12.378-14.369c1.688,1.322,2.356,1.818,2.356,1.818
						c3.49,2.551,8.538,6.162,13.566,7.391c2.736,0.674,5.451,0.662,7.943-0.588c4.078-2.047,5.33-8.045,6.323-12.061
						c2.218-8.896,1.79-18.711,1.295-27.793c0,0,1.099,2.535,6.077,9.777c7.625,9.719,18.899,7.342,22.782,7.137
						c3.766,2.582,9.938,6.822,13.431,8.869c3.501,2.061,4.377,0.768,7.219-0.709c2.863-1.488,0.444-3.363-1.368-4.352
						c-1.794-0.936-10.459-6.822-11.982-7.994c-1.526-1.229-1.526-4.07-1.526-5.869c0-1.807,0.123-8.371,0.123-8.371
						c0.032-2.381-2.414-4.138-2.414-4.138s12.705-3.445,28.52-2.124c2.558,0.22,3.734-1.526,3.734-1.526
						c3.547-4.287,1.803-8.509,1.803-8.509c-0.871-3.358-9.624-8.121-15.04-8.94c-5.406-0.805-16.439-1.391-16.439-1.391
						s5.816-3.468,1.964-5.187c-1.664-0.739-5.606-2.09-10.114-2.601c-7.68-0.89-14.148-1.327-23.693,0.559
						c-9.539,1.886-8.976,2.761-9.67,5.084c-0.668,2.323-0.462,3.631-6.768,5.094c-14.517,3.372-28.909,16.78-28.909,16.78
						c4.551-7.296,24.303-23.528,24.303-23.528c0.86-0.679,2.74-1.997,3.249-3.133c0,0-1.177-7.49-1.949-8.479
						c0,0,6.183,0.327,10.382,1.919c4.198,1.606,4.853,1.742,4.853,1.742s13.167-2.852,25.827-2.132
						c12.669,0.703,21.346,3.801,27.108,6.532c1.153,0.522,1.977,3.984,3.817,4.938c0,0,11.61,5.044,17.188,9.871
						c0,0,4.501,2.847,2.567,6.366C155.352,104.159,151.307,113.056,147.862,111.89z"/>
				</g>
			</g>
		</g>
	</g>
	<path fill="#231F20" d="M161.202,116.257c0,33.799-27.4,61.197-61.196,61.197c-33.803,0-61.201-27.398-61.201-61.197
		c0-33.802,27.398-61.198,61.201-61.198C133.802,55.059,161.202,82.455,161.202,116.257z"/>
</g>
</svg>
